<?xml version="1.0" encoding="utf-8"?>
<!-- Generator: Adobe Illustrator 27.5.0, SVG Export Plug-In . SVG Version: 6.00 Build 0)  -->
<svg version="1.1" xmlns="http://www.w3.org/2000/svg" xmlns:xlink="http://www.w3.org/1999/xlink" x="0px" y="0px"
	 viewBox="0 0 750 500" style="enable-background:new 0 0 750 500;" xml:space="preserve">
<g id="BACKGROUND">
	<rect style="fill:#FFFFFF;" width="750" height="500"/>
</g>
<g id="OBJECTS">
	<g>
		<defs>
			<rect id="SVGID_1_" width="750" height="500"/>
		</defs>
		<clipPath id="SVGID_00000048470124874685556000000003911916901947247789_">
			<use xlink:href="#SVGID_1_"  style="overflow:visible;"/>
		</clipPath>
		<g style="clip-path:url(#SVGID_00000048470124874685556000000003911916901947247789_);">
			<path style="fill:#F0F0F0;" d="M772.083,81.473c-0.078-0.045-0.336-0.15-0.536-0.236l-0.667-0.274l-1.401-0.553
				c-0.942-0.372-1.931-0.724-2.902-1.085c-1.971-0.704-3.971-1.383-5.991-2.038c-4.04-1.314-8.168-2.486-12.319-3.599
				c-8.318-2.193-16.788-4.032-25.345-5.518c-8.558-1.487-17.205-2.622-25.902-3.435c-8.697-0.812-17.448-1.33-26.223-1.448
				c-8.773-0.144-17.578-0.018-26.373,0.522c-4.407,0.194-8.794,0.616-13.199,0.97c-2.202,0.179-4.39,0.467-6.589,0.696
				c-2.195,0.257-4.403,0.449-6.588,0.783c-17.546,2.315-35.005,5.851-52.203,10.595c16.587-6.56,33.687-11.998,51.155-16.248
				c2.175-0.575,4.378-1.01,6.572-1.51c2.198-0.471,4.39-1.003,6.6-1.425c4.421-0.841,8.841-1.751,13.3-2.432
				c8.899-1.515,17.879-2.618,26.902-3.442c9.024-0.85,18.1-1.292,27.2-1.424c9.101-0.13,18.229,0.078,27.362,0.667
				c9.134,0.589,18.27,1.558,27.401,2.94c4.565,0.71,9.131,1.49,13.703,2.447c2.287,0.477,4.578,0.987,6.88,1.54
				c1.157,0.292,2.305,0.567,3.48,0.888l1.773,0.486l0.914,0.264l1.038,0.322L772.083,81.473z"/>
			<path style="fill:#F0F0F0;" d="M764.697,443.42c-0.028-0.118-0.13-0.418-0.211-0.664l-0.273-0.796
				c-0.185-0.54-0.382-1.089-0.593-1.65c-0.399-1.109-0.85-2.238-1.283-3.363c-0.898-2.255-1.85-4.513-2.833-6.769
				c-1.975-4.512-4.144-8.982-6.393-13.423c-4.547-8.863-9.558-17.555-14.98-26.016c-5.422-8.463-11.257-16.696-17.444-24.684
				c-6.184-7.991-12.712-15.753-19.628-23.18l-2.575-2.807l-2.652-2.733c-1.779-1.812-3.516-3.673-5.334-5.45
				c-3.645-3.544-7.268-7.128-11.069-10.522c-3.716-3.496-7.629-6.765-11.493-10.109c-1.934-1.67-3.957-3.227-5.934-4.849
				c-1.998-1.593-3.951-3.253-6.013-4.766c-16.224-12.479-33.493-23.738-51.594-33.638c18.937,8.176,37.311,17.839,54.892,28.928
				c2.231,1.339,4.358,2.828,6.534,4.254c2.154,1.455,4.358,2.848,6.477,4.358c4.234,3.024,8.531,5.986,12.646,9.19
				c4.199,3.102,8.236,6.41,12.307,9.694c2.031,1.646,3.985,3.382,5.984,5.072l2.984,2.553l2.912,2.634
				c7.821,6.974,15.305,14.352,22.49,22.039c7.188,7.684,14.067,15.692,20.576,24.03c6.51,8.338,12.648,17.001,18.377,25.999
				c2.843,4.515,5.615,9.091,8.227,13.805c1.303,2.36,2.582,4.746,3.823,7.177c0.612,1.23,1.232,2.443,1.828,3.71
				c0.302,0.621,0.601,1.26,0.898,1.915l0.45,0.995l0.487,1.137L764.697,443.42z"/>
			<path style="fill:#F0F0F0;" d="M514.812,664.573c0.074-0.124,0.227-0.435,0.357-0.694l0.408-0.837
				c0.276-0.569,0.55-1.15,0.821-1.753c0.551-1.179,1.075-2.411,1.609-3.628c1.05-2.459,2.052-4.966,3.03-7.493
				c1.941-5.065,3.692-10.245,5.348-15.466c3.251-10.469,5.968-21.168,8.14-32.007c2.173-10.84,3.803-21.819,4.922-32.874
				c1.126-11.055,1.759-22.192,1.782-33.353l0.042-4.188l-0.086-4.187c-0.076-2.791-0.071-5.591-0.213-8.383l-0.437-8.383
				c-0.057-1.4-0.16-2.796-0.29-4.19l-0.355-4.187c-0.391-5.597-1.149-11.153-1.789-16.736c-0.336-2.789-0.823-5.555-1.228-8.337
				c-0.438-2.776-0.802-5.571-1.365-8.326c-3.982-22.154-9.858-44.06-17.513-65.414c9.428,20.628,17.2,42.098,23.127,64.169
				c0.806,2.745,1.413,5.535,2.096,8.312c0.649,2.783,1.381,5.554,1.963,8.355c1.131,5.607,2.38,11.208,3.264,16.874l0.724,4.242
				c0.253,1.414,0.48,2.831,0.659,4.254l1.174,8.537c0.387,2.849,0.627,5.713,0.947,8.572l0.452,4.294l0.323,4.305
				c0.948,11.482,1.272,23.034,1.077,34.599c-0.19,11.566-0.915,23.151-2.23,34.703c-1.314,11.553-3.214,23.069-5.733,34.515
				c-1.292,5.718-2.698,11.425-4.34,17.11c-0.831,2.842-1.696,5.684-2.635,8.53c-0.485,1.426-0.954,2.847-1.482,4.288
				c-0.251,0.714-0.521,1.44-0.802,2.174l-0.43,1.115l-0.509,1.247L514.812,664.573z"/>
			<path style="fill:#F0F0F0;" d="M306.942,682.557c0.17-0.111,0.506-0.36,0.798-0.575l0.919-0.69
				c0.623-0.472,1.249-0.951,1.88-1.461c1.263-0.984,2.518-2.038,3.777-3.076l3.745-3.212l3.695-3.318
				c4.891-4.492,9.615-9.223,14.237-14.07c9.176-9.767,17.797-20.148,25.78-31.036c7.986-10.889,15.333-22.287,22.035-34.085
				c6.696-11.799,12.815-23.977,18.091-36.543c5.3-12.55,10.109-25.366,13.961-38.501l1.505-4.911
				c0.5-1.638,0.892-3.305,1.343-4.957l2.628-9.943c0.79-3.336,1.501-6.691,2.257-10.041l1.119-5.03
				c0.373-1.677,0.629-3.375,0.95-5.063c5.093-27.013,7.544-54.627,7.5-82.316c1.959,27.616,1.44,55.5-1.817,83.195
				c-0.206,1.73-0.348,3.472-0.607,5.195l-0.779,5.172c-0.53,3.447-1.017,6.907-1.585,10.353l-1.97,10.295
				c-0.343,1.714-0.626,3.443-1.019,5.146l-1.185,5.111c-3.004,13.678-7.011,27.143-11.57,40.436
				c-4.535,13.31-9.977,26.329-16.077,39.057c-6.106,12.727-12.938,25.142-20.515,37.133c-7.575,11.993-15.889,23.558-24.927,34.621
				c-4.56,5.501-9.259,10.909-14.215,16.139l-3.77,3.89l-3.88,3.826c-1.326,1.26-2.639,2.524-4.022,3.768
				c-0.674,0.624-1.379,1.249-2.094,1.874l-1.093,0.947c-0.384,0.324-0.721,0.617-1.239,1.031L306.942,682.557z"/>
			<path style="fill:#F0F0F0;" d="M-21.735,429.902c0.14,0.066,0.475,0.195,0.756,0.306l0.907,0.345
				c0.616,0.233,1.244,0.463,1.894,0.687c1.274,0.461,2.599,0.888,3.911,1.326l3.998,1.25l4.05,1.178
				c5.431,1.525,10.962,2.84,16.527,4.047c11.152,2.347,22.494,4.101,33.926,5.257c11.433,1.158,22.958,1.72,34.508,1.727
				c11.55,0.013,23.133-0.509,34.674-1.689l4.334-0.408l4.319-0.543c2.877-0.383,5.773-0.676,8.642-1.133l8.617-1.37
				c1.441-0.211,2.871-0.478,4.298-0.765l4.288-0.83c5.742-1.02,11.396-2.435,17.095-3.717c2.843-0.667,5.646-1.479,8.475-2.213
				c2.82-0.763,5.665-1.461,8.447-2.357c22.435-6.64,44.377-15.269,65.518-25.706c-20.219,12.117-41.522,22.584-63.674,31.152
				c-2.746,1.137-5.562,2.077-8.358,3.084c-2.805,0.977-5.589,2.034-8.419,2.946c-5.674,1.774-11.325,3.683-17.088,5.201
				l-4.308,1.204c-1.434,0.411-2.874,0.803-4.327,1.139l-8.701,2.12c-2.903,0.707-5.84,1.251-8.763,1.884l-4.393,0.918l-4.418,0.783
				c-11.774,2.18-23.689,3.698-35.671,4.662c-11.983,0.97-24.04,1.366-36.12,1.13c-12.081-0.236-24.18-1.102-36.26-2.634
				c-6.038-0.802-12.074-1.727-18.109-2.901l-4.529-0.925l-4.538-1.022c-1.519-0.372-3.033-0.728-4.57-1.144
				c-0.761-0.195-1.537-0.409-2.321-0.633l-1.191-0.344c-0.416-0.126-0.779-0.229-1.331-0.413L-21.735,429.902z"/>
			<path style="fill:#F0F0F0;" d="M-19.746,74.492c0.035,0.128,0.15,0.44,0.243,0.698l0.31,0.831
				c0.211,0.563,0.433,1.136,0.67,1.719c0.451,1.156,0.958,2.329,1.446,3.499c1.008,2.345,2.078,4.689,3.178,7.031
				c2.215,4.681,4.632,9.309,7.137,13.901c5.065,9.162,10.627,18.118,16.629,26.805c6.002,8.688,12.446,17.108,19.265,25.243
				c6.815,8.138,14,16.007,21.593,23.492l2.828,2.831l2.909,2.746c1.951,1.819,3.858,3.695,5.851,5.473l5.996,5.325
				c0.991,0.9,2.007,1.77,3.042,2.616l3.083,2.57c4.068,3.49,8.341,6.719,12.563,10.036c2.115,1.652,4.318,3.182,6.476,4.782
				c2.178,1.57,4.314,3.209,6.558,4.686c17.681,12.238,36.433,23.081,56,32.398c-20.309-7.551-40.088-16.745-59.069-27.536
				c-2.406-1.296-4.71-2.758-7.058-4.154c-2.329-1.426-4.707-2.784-7.001-4.269c-4.58-2.983-9.227-5.89-13.685-9.075l-3.378-2.344
				c-1.134-0.772-2.25-1.568-3.343-2.396l-6.615-4.902c-2.202-1.641-4.323-3.384-6.492-5.075l-3.238-2.556l-3.162-2.648
				c-8.49-7.006-16.628-14.466-24.445-22.278c-7.821-7.809-15.315-15.984-22.412-24.529c-7.099-8.546-13.801-17.459-20.065-26.744
				c-3.108-4.661-6.139-9.391-9.002-14.27c-1.427-2.445-2.83-4.915-4.19-7.436c-0.672-1.275-1.352-2.534-2.007-3.847
				c-0.331-0.644-0.66-1.308-0.986-1.986l-0.494-1.032l-0.535-1.176L-19.746,74.492z"/>
			<path style="fill:#F0F0F0;" d="M166.475-125.812c-0.048,0.123-0.142,0.44-0.222,0.701l-0.248,0.847
				c-0.168,0.575-0.332,1.163-0.49,1.77c-0.329,1.19-0.625,2.428-0.934,3.651c-0.594,2.47-1.14,4.976-1.66,7.497
				c-1.027,5.05-1.861,10.18-2.605,15.333c-1.43,10.321-2.343,20.775-2.746,31.276c-0.404,10.503-0.299,21.055,0.275,31.605
				c0.568,10.55,1.588,21.107,3.161,31.602l0.56,3.943l0.675,3.924c0.466,2.614,0.864,5.246,1.387,7.852l1.59,7.821
				c0.251,1.309,0.54,2.608,0.857,3.9l0.917,3.889c1.152,5.209,2.622,10.334,3.998,15.497c0.695,2.58,1.534,5.114,2.294,7.678
				c0.794,2.552,1.514,5.133,2.416,7.651c6.75,20.311,15.18,40.155,25.166,59.275c-11.641-18.155-21.883-37.297-30.54-57.231
				c-1.14-2.47-2.1-5.01-3.135-7.525c-1.002-2.526-2.082-5.029-3.021-7.582c-1.864-5.111-3.826-10.203-5.472-15.401l-1.289-3.884
				c-0.442-1.292-0.855-2.593-1.231-3.904l-2.339-7.854c-0.773-2.622-1.421-5.277-2.139-7.918l-1.051-3.969l-0.936-3.997
				c-2.578-10.649-4.605-21.449-6.17-32.337c-1.57-10.888-2.662-21.872-3.221-32.915c-0.559-11.044-0.585-22.145-0.041-33.28
				c0.302-5.568,0.705-11.145,1.331-16.742c0.32-2.799,0.674-5.605,1.092-8.426c0.224-1.417,0.432-2.826,0.693-4.264
				c0.12-0.711,0.253-1.436,0.398-2.172l0.221-1.118l0.275-1.257L166.475-125.812z"/>
			<path style="fill:#F0F0F0;" d="M487.469-164.104c-0.168,0.084-0.514,0.287-0.813,0.459l-0.943,0.559
				c-0.639,0.382-1.283,0.772-1.935,1.189c-1.301,0.801-2.602,1.669-3.906,2.521l-3.892,2.653l-3.86,2.755
				c-5.12,3.741-10.114,7.721-15.027,11.819c-9.772,8.269-19.104,17.16-27.911,26.585c-8.809,9.425-17.094,19.385-24.839,29.782
				c-7.744,10.396-14.993,21.21-21.532,32.471c-6.566,11.24-12.694,22.792-18.007,34.741l-2.041,4.463
				c-0.699,1.481-1.267,3.015-1.908,4.521l-3.747,9.083c-1.194,3.05-2.282,6.142-3.43,9.215l-1.702,4.619
				c-0.589,1.534-1.036,3.112-1.562,4.667c-8.313,24.913-14.28,50.713-17.936,76.917c1.75-26.396,5.84-52.726,12.422-78.549
				c0.417-1.612,0.757-3.248,1.239-4.842l1.383-4.803c0.937-3.199,1.816-6.42,2.804-9.608l3.138-9.512
				c0.541-1.58,1.01-3.189,1.611-4.747l1.748-4.699c4.539-12.589,9.949-24.873,15.867-36.929
				c5.89-12.076,12.562-23.792,19.814-35.164c7.253-11.373,15.133-22.384,23.647-32.931c8.513-10.549,17.656-20.631,27.414-30.183
				c4.913-4.744,9.944-9.389,15.197-13.845l3.986-3.307l4.081-3.239c1.391-1.062,2.767-2.13,4.21-3.173
				c0.705-0.525,1.439-1.048,2.183-1.57l1.137-0.791c0.399-0.27,0.749-0.514,1.287-0.858L487.469-164.104z"/>
			<path style="fill:#F0F0F0;" d="M635.962-91.403c-0.15,0.009-0.501,0.059-0.796,0.097l-0.945,0.136
				c-0.641,0.093-1.292,0.195-1.959,0.312c-1.317,0.211-2.663,0.475-4.002,0.722l-4.041,0.829l-4.052,0.915
				c-5.408,1.273-10.802,2.774-16.176,4.383c-10.734,3.285-21.352,7.165-31.767,11.596c-10.417,4.43-20.633,9.412-30.611,14.878
				c-9.981,5.461-19.742,11.394-29.159,17.867l-3.554,2.401l-3.477,2.509c-2.306,1.69-4.67,3.313-6.936,5.061l-6.803,5.252
				c-1.146,0.863-2.259,1.766-3.357,2.688l-3.317,2.74c-4.484,3.592-8.711,7.476-13.036,11.273
				c-2.147,1.914-4.189,3.938-6.292,5.905c-2.08,1.989-4.215,3.93-6.201,6.015c-16.291,16.302-31.238,34.078-44.656,53.036
				c11.807-19.995,25.314-39.08,40.432-56.937c1.839-2.279,3.832-4.418,5.773-6.609c1.965-2.168,3.872-4.398,5.89-6.521
				c4.066-4.215,8.052-8.531,12.315-12.569l3.154-3.077c1.045-1.034,2.105-2.052,3.201-3.029l6.516-5.948
				c2.176-1.983,4.454-3.845,6.679-5.775l3.36-2.873l3.445-2.769c9.138-7.46,18.705-14.422,28.589-20.944
				c9.882-6.527,20.097-12.602,30.628-18.148c10.532-5.548,21.376-10.567,32.52-15.011c5.587-2.19,11.231-4.276,16.991-6.147
				l4.344-1.367l4.398-1.29c1.487-0.406,2.961-0.823,4.484-1.2c0.749-0.196,1.52-0.383,2.302-0.565l1.192-0.274l1.346-0.282
				L635.962-91.403z"/>
			<path style="fill:#F0F0F0;" d="M812.194,235.222c-0.735-0.679-1.631-1.477-2.495-2.208c-0.864-0.75-1.765-1.482-2.653-2.222
				c-1.798-1.464-3.629-2.903-5.482-4.321c-3.707-2.836-7.535-5.54-11.406-8.186c-7.77-5.257-15.804-10.169-24.047-14.725
				c-8.243-4.557-16.696-8.758-25.309-12.624c-8.612-3.867-17.381-7.419-26.307-10.552c-8.915-3.16-17.95-6.027-27.112-8.447
				c-4.562-1.293-9.186-2.335-13.797-3.451c-2.306-0.558-4.638-0.991-6.957-1.493c-2.325-0.47-4.639-1.013-6.98-1.397
				c-18.667-3.471-37.62-5.585-56.66-6.316c19.052-0.102,38.139,1.18,57.068,3.849c2.375,0.283,4.723,0.727,7.085,1.098
				c2.356,0.403,4.726,0.737,7.073,1.197c4.692,0.92,9.405,1.769,14.064,2.871c9.357,2.038,18.617,4.535,27.788,7.341
				c9.182,2.778,18.238,5.993,27.168,9.541c8.931,3.548,17.733,7.452,26.36,11.739c8.627,4.287,17.078,8.956,25.317,14.02
				c4.109,2.551,8.182,5.17,12.168,7.951c1.993,1.391,3.971,2.81,5.932,4.269c0.975,0.743,1.955,1.471,2.925,2.24
				c0.987,0.767,1.907,1.509,2.96,2.402L812.194,235.222z"/>
			<path style="fill:#F0F0F0;" d="M504.302,548.023c2.468-22.694,2.83-45.701,1.099-68.628
				c-1.722-22.932-5.534-45.771-11.144-68.224c7.209,21.988,12.701,44.625,16.113,67.669c3.421,23.038,4.757,46.47,3.906,69.914
				L504.302,548.023z"/>
			<path style="fill:#F0F0F0;" d="M288.384,550.417c15.224-15.022,29.198-31.419,41.742-48.93
				c12.552-17.509,23.669-36.123,33.38-55.506c-8.193,20.069-17.894,39.602-29.207,58.26
				c-11.305,18.659-24.218,36.434-38.628,53.024L288.384,550.417z"/>
			<path style="fill:#F0F0F0;" d="M-60.921,207.986c0.722,0.895,1.598,1.938,2.453,2.903c0.852,0.987,1.747,1.956,2.628,2.933
				c1.787,1.94,3.623,3.849,5.483,5.74c3.732,3.774,7.622,7.413,11.58,10.984c7.957,7.099,16.294,13.811,24.947,20.108
				c8.653,6.299,17.623,12.184,26.844,17.665c9.217,5.485,18.684,10.584,28.4,15.178l3.631,1.751l3.681,1.644
				c2.461,1.081,4.896,2.228,7.38,3.256l7.465,3.066c1.24,0.525,2.493,1.014,3.757,1.474l3.78,1.417
				c5.017,1.961,10.146,3.608,15.245,5.353c2.552,0.865,5.149,1.586,7.723,2.387c2.584,0.767,5.148,1.611,7.763,2.268
				c20.796,5.737,42.093,9.788,63.613,12.132c-21.592-1.514-43.095-4.746-64.236-9.711c-2.658-0.56-5.268-1.309-7.9-1.98
				c-2.622-0.706-5.268-1.333-7.872-2.105c-5.204-1.559-10.444-3.023-15.582-4.806l-3.872-1.284
				c-1.295-0.416-2.581-0.861-3.853-1.342l-7.665-2.809c-2.554-0.943-5.059-2.007-7.593-3.006l-3.792-1.522l-3.745-1.631
				c-10.024-4.276-19.83-9.079-29.419-14.296c-9.592-5.213-18.963-10.856-28.051-16.95c-9.089-6.093-17.892-12.635-26.361-19.626
				c-4.216-3.519-8.374-7.118-12.401-10.888c-2.009-1.89-4-3.807-5.956-5.773c-0.971-0.995-1.949-1.977-2.907-3.002
				c-0.977-1.025-1.885-2.016-2.907-3.189L-60.921,207.986z"/>
			<path style="fill:#F0F0F0;" d="M-1.572-16.435c0.239,1.144,0.539,2.464,0.852,3.716c0.303,1.267,0.645,2.538,0.976,3.809
				c0.682,2.542,1.416,5.08,2.173,7.615C3.959,3.771,5.659,8.801,7.437,13.807c3.609,9.995,7.66,19.855,12.114,29.541
				c4.454,9.686,9.312,19.198,14.523,28.521c1.328,2.316,2.598,4.669,3.973,6.958l4.108,6.884c2.845,4.523,5.649,9.08,8.659,13.502
				c2.913,4.49,6.064,8.814,9.129,13.205c3.217,4.276,6.327,8.642,9.695,12.809c6.554,8.481,13.588,16.582,20.78,24.546
				c14.537,15.787,30.248,30.537,46.999,44.06c-17.26-12.863-33.581-27.031-48.809-42.336c-7.538-7.722-14.938-15.607-21.875-23.9
				c-3.559-4.072-6.866-8.351-10.283-12.547c-3.265-4.31-6.62-8.562-9.741-12.985c-3.218-4.356-6.233-8.854-9.293-13.326
				l-4.432-6.813c-1.484-2.268-2.865-4.601-4.303-6.899C23.028,65.774,17.716,56.3,12.799,46.612
				C7.881,36.924,3.356,27.024-0.739,16.924C-2.761,11.863-4.706,6.765-6.491,1.593c-0.884-2.59-1.747-5.19-2.561-7.816
				c-0.398-1.319-0.806-2.631-1.181-3.968c-0.39-1.345-0.741-2.635-1.109-4.112L-1.572-16.435z"/>
			<path style="fill:#F0F0F0;" d="M265.555-40.821c-3.742,23.136-5.292,46.712-4.654,70.31c0.627,23.601,3.439,47.209,8.122,70.502
				c-6.304-22.904-10.803-46.391-13.113-70.192c-2.32-23.796-2.446-47.892-0.277-71.878L265.555-40.821z"/>
		</g>
		<g style="clip-path:url(#SVGID_00000048470124874685556000000003911916901947247789_);">
			<path style="fill:#141414;" d="M672.318-29.69c-0.147-0.018-0.516-0.033-0.824-0.048l-0.992-0.035
				c-0.674-0.023-1.359-0.038-2.065-0.04c-1.39-0.025-2.82,0.004-4.24,0.016l-4.302,0.129l-4.33,0.226
				c-5.788,0.359-11.602,0.984-17.412,1.738c-11.615,1.586-23.202,3.885-34.645,6.867c-11.445,2.98-22.748,6.644-33.846,10.919
				c-11.088,4.292-22.028,9.098-32.615,14.645c-10.588,5.532-21.029,11.463-31.007,18.145l-3.778,2.457
				c-1.244,0.841-2.459,1.724-3.691,2.585l-7.376,5.2l-7.184,5.473l-3.595,2.744c-1.187,0.929-2.33,1.911-3.498,2.864
				c-18.704,15.24-36.049,32.303-51.843,50.793c14.287-19.673,30.326-38.183,48.045-55.11c1.107-1.059,2.189-2.146,3.317-3.183
				l3.422-3.069l6.861-6.138l7.087-5.886c1.186-0.976,2.357-1.976,3.558-2.934l3.655-2.812c9.66-7.633,19.879-14.566,30.35-21.133
				c10.469-6.583,21.399-12.46,32.592-17.841c11.203-5.364,22.726-10.135,34.526-14.225c11.8-4.092,23.873-7.503,36.177-10.184
				c6.162-1.303,12.37-2.47,18.667-3.364l4.741-0.625l4.786-0.524c1.613-0.143,3.215-0.301,4.861-0.404
				c0.811-0.062,1.644-0.11,2.489-0.149l1.286-0.056c0.451-0.013,0.842-0.032,1.454-0.033L672.318-29.69z"/>
			<path style="fill:#141414;" d="M768.823,26.079c-0.19-0.055-0.598-0.144-0.948-0.224l-1.115-0.24
				c-0.757-0.161-1.526-0.317-2.319-0.459c-1.559-0.307-3.167-0.561-4.764-0.831l-4.847-0.716l-4.894-0.613
				c-6.552-0.751-13.177-1.213-19.822-1.526c-13.301-0.536-26.702-0.264-40.073,0.808c-13.373,1.069-26.715,2.937-39.943,5.537
				c-13.221,2.617-26.368,5.858-39.262,9.997c-12.892,4.118-25.687,8.729-38.106,14.271l-4.687,2.018
				c-1.552,0.695-3.075,1.453-4.615,2.176l-9.224,4.394l-9.06,4.738l-4.533,2.377c-1.503,0.807-2.963,1.689-4.448,2.53
				c-23.765,13.452-46.328,29.226-67.4,46.899c19.788-19.094,41.312-36.518,64.403-51.806c1.443-0.956,2.862-1.953,4.326-2.876
				l4.42-2.728l8.859-5.449l9.061-5.121c1.516-0.846,3.015-1.726,4.546-2.544l4.629-2.39c12.275-6.536,25.032-12.174,37.997-17.334
				c12.966-5.181,26.299-9.48,39.824-13.152c13.532-3.654,27.296-6.575,41.224-8.673c13.928-2.1,28.014-3.38,42.197-3.797
				c7.094-0.163,14.21-0.163,21.361,0.153l5.373,0.294l5.397,0.415c1.81,0.176,3.612,0.335,5.448,0.562
				c0.908,0.099,1.835,0.22,2.77,0.35l1.423,0.203c0.495,0.077,0.932,0.139,1.583,0.259L768.823,26.079z"/>
			<path style="fill:#141414;" d="M789.392,117.938l-1.292-0.677l-1.402-0.699c-0.939-0.468-1.912-0.913-2.871-1.369
				c-1.941-0.89-3.905-1.754-5.887-2.592c-3.962-1.682-8.009-3.216-12.081-4.689c-8.16-2.915-16.482-5.468-24.912-7.662
				c-8.43-2.195-16.969-4.031-25.575-5.539c-8.607-1.499-17.28-2.721-26.004-3.52c-8.72-0.819-17.481-1.388-26.26-1.518
				c-4.391-0.151-8.781-0.05-13.178-0.044c-2.198,0.024-4.393,0.133-6.591,0.196c-2.197,0.081-4.399,0.119-6.592,0.283
				c-17.572,0.975-35.114,3.182-52.456,6.6c17.119-4.393,34.574-7.606,52.21-9.59c2.201-0.29,4.413-0.454,6.623-0.661
				c2.211-0.189,4.421-0.424,6.636-0.574c4.432-0.258,8.867-0.61,13.311-0.709c8.887-0.371,17.795-0.299,26.701,0.032
				c8.909,0.31,17.809,1.053,26.683,2.086c8.874,1.041,17.721,2.425,26.508,4.189c8.788,1.763,17.514,3.906,26.155,6.452
				c4.316,1.291,8.619,2.649,12.886,4.181c2.135,0.762,4.264,1.558,6.39,2.391c1.063,0.432,2.124,0.847,3.191,1.305l1.605,0.69
				c0.551,0.241,1.047,0.463,1.688,0.768L789.392,117.938z"/>
			<path style="fill:#141414;" d="M739.825-4.549c-1.025-0.135-2.282-0.275-3.463-0.378c-1.195-0.118-2.41-0.201-3.62-0.295
				c-2.428-0.168-4.872-0.285-7.321-0.38c-4.901-0.171-9.825-0.17-14.753-0.086c-9.857,0.224-19.732,0.915-29.568,2.051
				c-9.837,1.136-19.636,2.717-29.363,4.701c-2.425,0.525-4.87,0.974-7.282,1.562l-7.254,1.709
				c-4.803,1.269-9.627,2.489-14.384,3.943c-4.794,1.341-9.499,2.965-14.241,4.492c-4.683,1.688-9.411,3.277-14.031,5.149
				c-9.322,3.548-18.43,7.647-27.437,11.969c-17.94,8.799-35.224,19.027-51.634,30.572c15.833-12.321,32.664-23.418,50.301-33.149
				c8.856-4.788,17.85-9.369,27.098-13.41c4.583-2.119,9.284-3.957,13.95-5.896c4.725-1.778,9.423-3.655,14.22-5.252
				c4.761-1.709,9.599-3.186,14.427-4.712l7.299-2.096c2.43-0.718,4.896-1.295,7.344-1.95c9.82-2.502,19.755-4.602,29.781-6.252
				c10.026-1.651,20.139-2.852,30.316-3.575c5.092-0.333,10.196-0.58,15.324-0.649c2.565-0.025,5.135-0.026,7.716,0.028
				c1.294,0.037,2.584,0.064,3.889,0.128l1.966,0.101c0.673,0.038,1.291,0.08,2.066,0.148L739.825-4.549z"/>
			<path style="fill:#141414;" d="M295.326-112.57c-1.037,2.762-2.049,5.534-3.016,8.32c-3.372,9.744-6.368,19.613-8.821,29.613
				c-2.476,9.99-4.62,20.059-6.188,30.217c-0.897,5.06-1.46,10.17-2.151,15.255c-0.31,2.548-0.522,5.108-0.787,7.659
				c-0.247,2.554-0.537,5.103-0.671,7.666c-1.507,20.464-1.391,41.009,0.288,61.397c-0.931-20.438-0.29-40.916,1.952-61.187
				c0.227-2.539,0.608-5.061,0.946-7.587c0.356-2.524,0.659-5.053,1.059-7.569c0.872-5.021,1.613-10.059,2.686-15.039
				c1.921-9.998,4.406-19.875,7.211-29.641c2.781-9.775,6.091-19.389,9.757-28.845c1.339-3.446,2.752-6.862,4.201-10.261H295.326z"
				/>
			<path style="fill:#141414;" d="M186.113,45.521c-0.737-2.626-1.525-5.238-2.22-7.875c-1.291-5.3-2.737-10.56-3.804-15.91
				c-2.391-10.639-4.136-21.412-5.504-32.216c-1.393-10.804-2.163-21.68-2.489-32.555c-0.318-10.877-0.13-21.764,0.611-32.609
				c0.74-10.844,2.035-21.643,3.897-32.331c0.276-1.534,0.563-3.066,0.859-4.596h-4.532c-0.221,1.292-0.435,2.585-0.642,3.878
				c-1.684,10.886-2.785,21.847-3.325,32.828c-0.541,10.981-0.52,21.982,0.01,32.95c0.538,10.966,1.524,21.912,3.134,32.765
				c1.585,10.853,3.546,21.654,6.153,32.302c1.175,5.354,2.728,10.613,4.125,15.908c0.748,2.634,1.589,5.242,2.379,7.863
				c0.804,2.617,1.576,5.244,2.503,7.822c6.973,20.761,15.67,40.915,25.904,60.236c-9.864-19.513-18.161-39.8-24.715-60.62
				C187.583,50.777,186.864,48.144,186.113,45.521z"/>
			<path style="fill:#141414;" d="M133.26-20.778c2.374,18.228,6.201,36.303,11.427,54c5.222,17.7,11.842,35.014,19.671,51.795
				c-8.575-16.411-15.997-33.465-22.052-51.034c-6.059-17.566-10.75-35.639-13.989-54.01L133.26-20.778z"/>
			<path style="fill:#141414;" d="M-59.746,226.967c0.729,0.854,1.603,1.84,2.459,2.753c0.852,0.934,1.747,1.848,2.626,2.771
				c1.786,1.829,3.615,3.629,5.472,5.407c3.717,3.554,7.592,6.963,11.528,10.304c7.91,6.643,16.182,12.893,24.751,18.725
				c8.569,5.834,17.435,11.252,26.532,16.267c9.1,5.008,18.412,9.668,27.964,13.802c9.539,4.156,19.237,7.998,29.136,11.27
				c4.914,1.75,9.935,3.163,14.919,4.712c2.503,0.735,5.033,1.375,7.549,2.068c2.521,0.676,5.033,1.392,7.583,1.953
				c20.297,4.924,41.022,8.217,61.907,9.884c-20.93-0.918-41.817-3.469-62.403-7.689c-2.586-0.473-5.136-1.102-7.697-1.691
				c-2.556-0.606-5.128-1.16-7.675-1.81c-5.072-1.378-10.188-2.623-15.205-4.21c-10.106-2.943-20.042-6.472-29.849-10.334
				c-9.82-3.84-19.43-8.224-28.857-12.98c-9.425-4.764-18.647-9.954-27.603-15.594c-8.957-5.639-17.646-11.725-26.019-18.26
				c-4.17-3.289-8.286-6.657-12.271-10.203c-1.991-1.775-3.962-3.579-5.903-5.429c-0.962-0.939-1.932-1.863-2.882-2.83
				c-0.968-0.966-1.87-1.904-2.881-3.008L-59.746,226.967z"/>
			<path style="fill:#141414;" d="M-55.267,360.562c0.932,0.593,2.041,1.269,3.11,1.881c1.071,0.633,2.178,1.236,3.272,1.851
				c2.21,1.207,4.451,2.375,6.712,3.514c4.524,2.276,9.156,4.372,13.825,6.388c9.362,3.984,18.949,7.498,28.696,10.541
				c9.747,3.044,19.652,5.617,29.66,7.75c10.008,2.126,20.116,3.868,30.299,5.054c10.178,1.21,20.415,2.083,30.681,2.369
				c5.132,0.259,10.268,0.176,15.409,0.227c2.57-0.012,5.137-0.123,7.708-0.18c2.57-0.075,5.143-0.107,7.707-0.296
				c20.545-1.077,41.034-3.793,61.223-8.075c-20.018,5.013-40.451,8.486-61.069,10.32c-2.574,0.284-5.158,0.411-7.741,0.58
				c-2.584,0.151-5.166,0.357-7.753,0.463c-5.175,0.137-10.355,0.409-15.538,0.336c-10.368,0.088-20.741-0.416-31.089-1.267
				c-10.353-0.826-20.664-2.218-30.91-4.008c-10.246-1.797-20.424-4.048-30.482-6.793c-10.058-2.744-19.995-5.979-29.764-9.724
				c-4.876-1.897-9.724-3.882-14.501-6.071c-2.388-1.096-4.765-2.227-7.128-3.408c-1.178-0.606-2.358-1.196-3.532-1.832
				c-1.191-0.63-2.312-1.252-3.584-1.999L-55.267,360.562z"/>
			<path style="fill:#141414;" d="M17.121,503.113c1.159,0.227,2.519,0.467,3.817,0.658c1.309,0.211,2.639,0.378,3.963,0.56
				c2.659,0.336,5.334,0.615,8.018,0.86c5.369,0.482,10.772,0.738,16.181,0.894c10.823,0.251,21.684-0.076,32.511-0.96
				c10.828-0.883,21.622-2.323,32.334-4.263c10.709-1.949,21.357-4.339,31.844-7.339c10.49-2.975,20.898-6.32,31.077-10.29
				c5.14-1.861,10.133-4.087,15.192-6.164c2.508-1.087,4.978-2.261,7.47-3.388c2.486-1.139,4.988-2.25,7.418-3.507
				c19.651-9.639,38.522-20.937,56.397-33.685c-17.428,13.351-35.949,25.324-55.376,35.69c-2.402,1.349-4.878,2.551-7.34,3.783
				c-2.468,1.219-4.916,2.487-7.404,3.667c-5.02,2.265-9.981,4.681-15.098,6.736c-10.134,4.356-20.531,8.096-31.047,11.47
				c-10.512,3.4-21.224,6.193-32.036,8.545c-10.815,2.344-21.751,4.185-32.767,5.464c-11.016,1.279-22.11,1.996-33.238,2.118
				c-5.564,0.031-11.136-0.043-16.716-0.352c-2.79-0.159-5.582-0.354-8.379-0.611c-1.401-0.144-2.798-0.272-4.206-0.449
				c-1.423-0.164-2.774-0.348-4.317-0.598L17.121,503.113z"/>
			<path style="fill:#141414;" d="M249.583,518.864c14.677-11.083,28.55-23.282,41.51-36.423
				c12.964-13.14,25.012-27.219,36.143-42.016c-10.454,15.282-21.886,29.933-34.324,43.731
				c-12.434,13.799-25.872,26.739-40.23,38.632L249.583,518.864z"/>
			<path style="fill:#141414;" d="M333.328,538.458c11.055-15.539,20.932-31.956,29.579-49.029
				c8.652-17.073,16.075-34.797,22.349-52.941c-5.48,18.399-12.142,36.481-20.094,54.022c-7.948,17.542-17.188,34.538-27.699,50.76
				L333.328,538.458z"/>
			<path style="fill:#141414;" d="M435.838,518.794c7.193-30.57,10.532-62.121,10.456-93.721c1.741,31.55,0.085,63.418-5.56,94.737
				L435.838,518.794z"/>
			<path style="fill:#141414;" d="M675.938,528.056c-2.076-12.909-4.883-25.749-8.523-38.378
				c-3.636-12.629-8.013-25.071-13.083-37.247c-5.069-12.177-10.812-24.103-17.273-35.652c-6.44-11.561-13.515-22.787-21.112-33.678
				c8.197,10.441,15.92,21.281,23.048,32.531c7.148,11.238,13.618,22.927,19.44,34.951c5.824,12.024,10.982,24.396,15.414,37.052
				c4.436,12.655,8.052,25.617,10.939,38.778L675.938,528.056z"/>
			<path style="fill:#141414;" d="M812.334,263.215c-1.247-1.361-2.75-2.857-4.185-4.262c-1.469-1.416-2.963-2.815-4.482-4.196
				c-3.032-2.766-6.179-5.43-9.367-8.046c-6.397-5.212-13.039-10.157-19.883-14.826c-13.699-9.32-28.146-17.617-43.154-24.8
				c-7.509-3.58-15.127-6.963-22.897-9.976c-3.858-1.581-7.797-2.946-11.709-4.395c-1.963-0.705-3.95-1.339-5.924-2.013
				c-1.98-0.658-3.949-1.354-5.952-1.939c-15.935-4.982-32.23-8.909-48.739-11.74c16.619,2.089,33.121,5.288,49.366,9.579
				c2.041,0.5,4.051,1.109,6.073,1.682c2.017,0.588,4.047,1.138,6.055,1.759c4.002,1.282,8.037,2.482,11.998,3.9
				c7.975,2.689,15.823,5.76,23.586,9.043c15.517,6.591,30.568,14.354,44.978,23.24c7.199,4.453,14.225,9.207,21.047,14.275
				c3.403,2.546,6.771,5.147,10.052,7.881c1.643,1.364,3.269,2.756,4.88,4.175c1.622,1.454,3.159,2.84,4.817,4.493L812.334,263.215z
				"/>
			<path style="fill:#141414;" d="M713.554,530.567c-0.094-1.132-0.234-2.481-0.401-3.75c-0.151-1.286-0.351-2.583-0.533-3.877
				c-0.396-2.592-0.847-5.186-1.334-7.779c-0.98-5.185-2.181-10.346-3.477-15.486c-2.648-10.269-5.845-20.424-9.55-30.404
				c-3.704-9.981-7.918-19.787-12.575-29.388c-4.664-9.597-9.722-19.023-15.307-28.143c-5.561-9.13-11.447-18.089-17.854-26.677
				c-3.102-4.372-6.503-8.515-9.787-12.756c-1.678-2.091-3.432-4.119-5.146-6.183c-1.725-2.054-3.424-4.133-5.244-6.105
				c-14.219-16.083-29.788-31.02-46.465-44.655c17.19,12.979,33.378,27.34,48.309,42.967c1.909,1.914,3.698,3.939,5.515,5.939
				c1.805,2.011,3.652,3.988,5.425,6.029c3.473,4.142,7.068,8.194,10.37,12.484c6.805,8.422,13.11,17.249,19.104,26.286
				c6.018,9.026,11.526,18.396,16.65,27.979c5.118,9.587,9.802,19.42,13.985,29.478c4.184,10.059,7.866,20.34,11.004,30.816
				c1.542,5.247,2.988,10.529,4.217,15.884c0.611,2.679,1.188,5.37,1.71,8.083c0.247,1.363,0.508,2.719,0.726,4.1
				c0.117,0.685,0.225,1.378,0.326,2.078c0.107,0.71,0.197,1.37,0.292,2.183L713.554,530.567z"/>
			<path style="fill:#141414;" d="M809.629,154.288l-0.818-0.475l-0.927-0.519c-0.629-0.349-1.264-0.697-1.92-1.039
				c-1.29-0.695-2.624-1.362-3.95-2.036l-4.032-1.969l-4.093-1.898c-5.492-2.485-11.101-4.778-16.76-6.967
				c-11.354-4.299-22.977-8.023-34.779-11.153c-11.803-3.132-23.787-5.672-35.881-7.649c-3.029-0.454-6.05-0.998-9.091-1.379
				l-9.13-1.162c-6.105-0.601-12.217-1.269-18.355-1.594c-6.133-0.49-12.283-0.573-18.438-0.796
				c-6.153,0.023-12.322-0.114-18.48,0.18l-4.624,0.15c-1.543,0.042-3.085,0.096-4.622,0.219l-9.239,0.619l-2.312,0.155
				l-2.304,0.234l-4.61,0.472l-4.613,0.472l-2.308,0.236l-2.297,0.313c-24.536,3.159-48.863,8.514-72.611,15.956
				c23.24-8.892,47.314-15.787,71.894-20.509l2.302-0.459l2.315-0.383l4.632-0.766l4.635-0.766l2.319-0.381l2.329-0.302l9.326-1.206
				c1.554-0.221,3.114-0.373,4.675-0.512l4.684-0.443c6.244-0.684,12.518-0.936,18.793-1.345c6.279-0.163,12.57-0.463,18.863-0.352
				c6.298-0.053,12.589,0.24,18.892,0.471l9.44,0.613c3.149,0.2,6.283,0.564,9.429,0.839c12.564,1.264,25.089,3.118,37.515,5.606
				c12.426,2.487,24.749,5.607,36.922,9.376c6.075,1.927,12.124,3.974,18.122,6.253l4.49,1.754l4.476,1.852
				c1.49,0.644,2.98,1.279,4.475,1.967c0.744,0.331,1.497,0.685,2.252,1.044l1.145,0.55l1.24,0.622L809.629,154.288z"/>
			<path style="fill:#141414;" d="M237.656,499.909c2.249-1.614,4.515-3.201,6.684-4.922c17.632-13.379,34.102-28.211,49.262-44.237
				c-15.755,15.443-32.727,29.596-50.731,42.214c-2.216,1.626-4.526,3.117-6.817,4.633c-2.298,1.505-4.567,3.053-6.887,4.522
				c-4.699,2.846-9.307,5.83-14.119,8.473c-9.485,5.518-19.295,10.447-29.242,15.021c-9.94,4.598-20.135,8.613-30.459,12.196
				c-10.327,3.577-20.812,6.666-31.416,9.206c-10.603,2.541-21.324,4.532-32.094,5.942c-5.387,0.674-10.783,1.247-16.178,1.591
				c-2.697,0.167-5.39,0.299-8.075,0.373c-1.339,0.021-2.682,0.059-4.009,0.05c-0.668,0.005-1.328-0.001-1.983-0.015
				c-0.643-0.007-1.34-0.03-1.882-0.055l-0.356,9.994c0.837,0.008,1.518,0.001,2.253-0.017c0.724-0.012,1.442-0.033,2.152-0.065
				c1.43-0.045,2.841-0.137,4.257-0.214c2.823-0.184,5.631-0.428,8.43-0.709c5.597-0.57,11.148-1.372,16.674-2.277
				c11.041-1.871,21.952-4.33,32.695-7.338c10.743-3.007,21.316-6.562,31.688-10.599c10.367-4.044,20.563-8.513,30.463-13.554
				c9.908-5.017,19.638-10.378,29.006-16.311c4.754-2.851,9.295-6.039,13.918-9.084C233.172,503.159,235.4,501.512,237.656,499.909z
				"/>
			<path style="fill:#141414;" d="M809.463,294.981l-0.65-0.799l-0.719-0.855c-0.485-0.574-0.979-1.148-1.492-1.72
				c-1-1.15-2.057-2.278-3.097-3.414l-3.207-3.357l-3.29-3.299c-4.437-4.363-9.083-8.542-13.822-12.619
				c-9.534-8.097-19.58-15.646-30.045-22.594c-10.465-6.95-21.349-13.299-32.554-19.054c-11.211-5.736-22.706-10.986-34.522-15.442
				c-11.804-4.47-23.801-8.533-36.052-11.717l-4.579-1.254c-1.532-0.395-3.079-0.731-4.618-1.1l-9.252-2.168l-9.327-1.83
				l-4.668-0.91c-1.559-0.289-3.13-0.5-4.695-0.754c-25.041-4.074-50.506-5.815-75.971-5.362c25.426-1.452,51.024-0.718,76.4,2.393
				c1.586,0.194,3.179,0.345,4.76,0.574l4.738,0.732l9.481,1.477l9.425,1.821c1.57,0.311,3.147,0.591,4.712,0.929l4.678,1.085
				c12.52,2.735,24.837,6.372,37.01,10.443c12.185,4.058,24.099,8.94,35.775,14.346c11.67,5.426,23.065,11.484,34.088,18.197
				c11.024,6.711,21.672,14.072,31.871,22.067c5.075,4.03,10.069,8.178,14.888,12.559l3.587,3.325l3.526,3.413
				c1.157,1.167,2.323,2.318,3.461,3.526c0.573,0.592,1.143,1.201,1.71,1.822l0.855,0.939l0.896,1.02L809.463,294.981z"/>
			<path style="fill:#141414;" d="M563.63,553.077c0.53-22.726-1.161-45.614-5.05-68.225c-3.878-22.617-9.95-44.94-17.869-66.676
				c9.764,20.966,17.82,42.842,23.733,65.405c5.923,22.556,9.698,45.78,11.184,69.268L563.63,553.077z"/>
			<path style="fill:#141414;" d="M457.653,503.177c1.332-20.164,1.061-40.338-0.596-60.317
				c-0.342,20.047-2.081,40.004-5.364,59.626c-3.277,19.621-8.097,38.9-14.431,57.572l10.653,3.032h0.945
				C453.419,543.311,456.333,523.253,457.653,503.177z"/>
			<path style="fill:#141414;" d="M448.86,563.09h-0.945l0.889,0.253C448.824,563.259,448.841,563.174,448.86,563.09z"/>
			<path style="fill:#141414;" d="M273.472,544.495c2.525-2.288,4.886-4.747,7.292-7.156c2.385-2.431,4.845-4.784,7.111-7.327
				l6.917-7.505c2.252-2.548,4.429-5.163,6.645-7.74l3.309-3.877l3.16-4l6.306-8.002l5.989-8.238l2.992-4.116l2.835-4.227
				c15.214-22.47,28.203-46.353,38.995-71.137c-11.702,24.37-25.531,47.678-41.445,69.405l-2.965,4.086l-3.118,3.971l-6.23,7.937
				l-6.533,7.686l-3.268,3.837l-3.412,3.71c-2.284,2.464-4.526,4.964-6.839,7.395l-7.094,7.146c-2.322,2.422-4.835,4.651-7.27,6.956
				c-2.456,2.283-4.864,4.615-7.432,6.772c-9.206,8.247-18.954,15.856-28.99,23.017h11.905
				C259.635,557.179,266.719,551.009,273.472,544.495z"/>
			<path style="fill:#141414;" d="M-32.255,406.197l0.97,0.454l1.058,0.474c0.713,0.317,1.433,0.63,2.17,0.931
				c1.454,0.622,2.95,1.196,4.435,1.786l4.511,1.681l4.564,1.586c6.116,2.056,12.344,3.839,18.614,5.481
				c12.567,3.202,25.365,5.64,38.281,7.302c12.917,1.664,25.95,2.553,39.006,2.719c13.053,0.14,26.147-0.308,39.166-1.68
				c3.266-0.245,6.507-0.702,9.756-1.11c3.245-0.437,6.51-0.755,9.734-1.343l9.703-1.595c3.225-0.587,6.429-1.288,9.647-1.926
				l4.824-0.98l4.785-1.154l9.572-2.327l9.479-2.693l4.742-1.349c1.571-0.481,3.126-1.014,4.69-1.518
				c25.049-8.014,49.374-18.438,72.643-30.91c-22.778,13.343-46.763,24.726-71.68,33.752c-1.556,0.568-3.103,1.163-4.667,1.708
				l-4.725,1.54l-9.458,3.078l-9.572,2.716l-4.792,1.349l-4.837,1.176c-3.229,0.769-6.446,1.601-9.689,2.318l-9.767,1.989
				c-3.248,0.719-6.543,1.169-9.819,1.737c-3.281,0.539-6.558,1.127-9.864,1.502c-13.178,1.894-26.49,2.859-39.822,3.221
				c-13.335,0.336-26.709-0.066-40.031-1.272c-13.323-1.204-26.591-3.209-39.723-6.031c-6.557-1.454-13.092-3.06-19.567-4.966
				l-4.847-1.481l-4.829-1.593c-1.606-0.567-3.212-1.116-4.818-1.731c-0.801-0.293-1.607-0.607-2.415-0.93l-1.22-0.492l-1.293-0.548
				L-32.255,406.197z"/>
			<path style="fill:#141414;" d="M334.266-11.273c-9.058,26.322-15.203,53.882-18.598,81.954c-0.598-28.267,1.58-56.818,7-85.035
				L334.266-11.273z"/>
			<path style="fill:#141414;" d="M665.408-70.675c-0.486,0.015-1.154,0.047-1.758,0.088c-0.617,0.036-1.241,0.08-1.873,0.133
				c-1.254,0.09-2.525,0.226-3.791,0.345c-2.539,0.27-5.084,0.592-7.631,0.95c-5.094,0.72-10.179,1.655-15.249,2.682
				c-10.133,2.108-20.188,4.75-30.102,7.889c-9.915,3.138-19.689,6.772-29.29,10.843c-9.598,4.077-19.054,8.542-28.245,13.526
				c-9.2,4.961-18.253,10.245-26.979,16.047c-4.433,2.801-8.662,5.898-12.979,8.882c-2.134,1.525-4.208,3.13-6.317,4.693
				c-2.098,1.576-4.223,3.122-6.248,4.792c-16.484,13.017-31.946,27.399-46.219,42.929c13.519-16.187,28.33-31.345,44.309-45.242
				c1.961-1.78,4.025-3.438,6.065-5.127c2.05-1.675,4.068-3.395,6.148-5.036c4.209-3.216,8.34-6.55,12.685-9.594
				c8.55-6.288,17.467-12.08,26.577-17.564c9.1-5.508,18.511-10.512,28.112-15.14c9.606-4.622,19.433-8.818,29.461-12.523
				c10.028-3.706,20.255-6.922,30.655-9.605c5.208-1.315,10.447-2.538,15.754-3.547c2.654-0.502,5.321-0.97,8.009-1.385
				c1.351-0.193,2.694-0.401,4.063-0.565c0.678-0.09,1.366-0.172,2.062-0.246c0.708-0.08,1.355-0.145,2.184-0.211L665.408-70.675z"
				/>
			<path style="fill:#141414;" d="M72.407-19.936c1.346,8.558,3.061,17.078,5.077,25.543c0.502,2.116,1.091,4.212,1.632,6.32
				c0.568,2.101,1.062,4.226,1.716,6.304c1.271,4.166,2.406,8.383,3.858,12.498c5.464,16.576,12.222,32.77,20.163,48.406
				c7.957,15.625,17.008,30.751,27.181,45.137c10.221,14.352,21.452,28.003,33.422,41.034
				c-12.681-12.328-24.716-25.37-35.822-39.235c-11.058-13.9-21.074-28.662-30.051-44.07c-8.961-15.419-16.794-31.542-23.358-48.219
				c-1.727-4.138-3.138-8.394-4.687-12.606c-0.793-2.101-1.426-4.254-2.133-6.384c-0.68-2.139-1.408-4.266-2.049-6.419
				c-2.574-8.611-4.849-17.325-6.752-26.15L72.407-19.936z"/>
			<path style="fill:#141414;" d="M779.988,327.453c-0.042-0.087-0.207-0.342-0.336-0.546l-0.432-0.664
				c-0.293-0.451-0.601-0.908-0.925-1.374c-0.622-0.925-1.302-1.858-1.962-2.79c-1.354-1.863-2.759-3.717-4.197-5.561
				c-2.88-3.688-5.941-7.287-9.072-10.837c-6.303-7.073-13.013-13.868-20.064-20.335c-7.051-6.468-14.443-12.61-22.113-18.424
				c-7.673-5.809-15.601-11.338-23.829-16.424c-8.214-5.105-16.63-9.953-25.318-14.308c-4.298-2.28-8.738-4.262-13.134-6.368
				c-2.212-1.019-4.462-1.952-6.694-2.934c-2.239-0.966-4.466-1.971-6.747-2.835c-18.105-7.311-36.879-13.198-56.07-17.607
				c19.525,2.522,38.927,6.572,57.969,12.18c2.398,0.652,4.747,1.446,7.113,2.203c2.359,0.774,4.74,1.5,7.088,2.316
				c4.669,1.699,9.398,3.284,14.007,5.177c9.306,3.582,18.416,7.703,27.393,12.136c8.992,4.414,17.754,9.329,26.328,14.593
				c8.571,5.27,16.931,10.935,25.019,17.018c8.089,6.083,15.904,12.58,23.409,19.509c3.737,3.485,7.42,7.046,10.983,10.788
				c1.781,1.873,3.543,3.778,5.282,5.737c0.865,0.997,1.733,1.974,2.592,3.011c0.43,0.505,0.862,1.029,1.296,1.569l0.659,0.822
				c0.23,0.295,0.427,0.538,0.734,0.956L779.988,327.453z"/>
			<path style="fill:#141414;" d="M765.803,383.269c-0.037-0.107-0.176-0.402-0.285-0.641l-0.367-0.775
				c-0.25-0.526-0.512-1.061-0.792-1.607c-0.533-1.081-1.126-2.176-1.698-3.268c-1.18-2.187-2.422-4.37-3.697-6.546
				c-2.561-4.35-5.332-8.625-8.189-12.855c-5.766-8.431-12.03-16.601-18.726-24.443c-6.695-7.844-13.822-15.361-21.309-22.538
				c-7.492-7.17-15.31-14.055-23.527-20.468c-8.2-6.43-16.658-12.597-25.489-18.227c-4.349-2.929-8.899-5.526-13.378-8.272
				c-2.266-1.324-4.575-2.571-6.864-3.863c-2.294-1.282-4.579-2.589-6.934-3.756c-18.644-9.752-38.201-17.955-58.367-24.543
				c20.675,4.74,41.041,11.176,60.808,19.336c2.495,0.968,4.925,2.079,7.369,3.168c2.439,1.099,4.902,2.156,7.327,3.292
				c4.798,2.373,9.685,4.608,14.39,7.191c9.542,4.935,18.786,10.466,27.84,16.329c9.07,5.846,17.81,12.233,26.284,18.989
				c8.47,6.763,16.64,13.949,24.436,21.567c7.798,7.618,15.221,15.664,22.224,24.144c3.48,4.261,6.886,8.601,10.129,13.117
				c1.619,2.262,3.213,4.554,4.77,6.903c0.771,1.19,1.548,2.363,2.305,3.596c0.381,0.603,0.761,1.226,1.141,1.865l0.575,0.974
				c0.198,0.347,0.372,0.637,0.631,1.122L765.803,383.269z"/>
			<path style="fill:#141414;" d="M736.913,526.583c0.018-0.059-0.023-0.462-0.051-0.788c-0.023-0.319-0.064-0.685-0.108-1.061
				c-0.081-0.736-0.161-1.475-0.273-2.257c-0.19-1.529-0.439-3.105-0.682-4.68c-0.246-1.575-0.549-3.173-0.819-4.762l-0.94-4.796
				c-1.329-6.41-2.946-12.829-4.709-19.234c-3.651-12.783-8.115-25.448-13.352-37.844c-5.236-12.399-11.247-24.532-17.955-36.325
				l-2.549-4.407c-0.848-1.472-1.689-2.951-2.61-4.376l-5.414-8.653l-5.727-8.467l-1.435-2.121l-1.508-2.067l-3.027-4.132
				l-3.032-4.141c-1.027-1.368-2.115-2.686-3.17-4.034c-2.141-2.669-4.224-5.399-6.421-8.032l-6.709-7.815l-1.68-1.958l-1.75-1.892
				l-3.516-3.778c-4.607-5.133-9.598-9.886-14.497-14.771c-1.207-1.242-2.515-2.369-3.785-3.542l-3.836-3.496
				c-2.57-2.319-5.081-4.723-7.78-6.897c-21.101-18.016-44.231-33.956-68.811-47.606c26.014,10.643,51.162,23.843,74.857,39.641
				c3.021,1.896,5.866,4.032,8.778,6.09l4.354,3.112c1.445,1.047,2.929,2.05,4.316,3.171c5.617,4.401,11.355,8.703,16.743,13.429
				l4.106,3.479l2.049,1.748l1.983,1.819l7.944,7.294c2.616,2.47,5.124,5.048,7.697,7.576c1.271,1.277,2.576,2.527,3.822,3.83
				l3.693,3.954l3.697,3.962l1.846,1.988l1.775,2.047l7.107,8.214l6.823,8.471c1.159,1.401,2.238,2.858,3.325,4.312l3.269,4.362
				c8.637,11.698,16.638,23.931,23.898,36.657c7.262,12.727,13.784,25.937,19.512,39.603c2.806,6.861,5.468,13.81,7.856,20.932
				l1.74,5.38c0.543,1.823,1.11,3.624,1.632,5.471c0.519,1.849,1.041,3.695,1.52,5.61c0.248,0.936,0.482,1.922,0.715,2.911
				c0.117,0.487,0.233,0.983,0.348,1.53c0.115,0.539,0.223,1.001,0.365,1.81L736.913,526.583z"/>
			<path style="fill:#141414;" d="M377.718,560.174l4.568-10.449c0.375-0.872,0.769-1.734,1.129-2.612l1.032-2.655l2.059-5.304
				c2.874-7.012,5.131-14.255,7.597-21.385c1.163-3.592,2.151-7.242,3.23-10.852l1.584-5.423c0.565-1.794,0.932-3.65,1.407-5.47
				c7.44-29.179,11.663-58.92,12.984-88.618c-4.637,29.371-12.123,58.138-22.515,85.59c-0.659,1.712-1.209,3.46-1.956,5.139
				l-2.125,5.073c-1.438,3.371-2.778,6.772-4.287,10.103c-3.158,6.604-6.084,13.283-9.594,19.681l-2.533,4.837l-1.264,2.416
				c-0.437,0.797-0.906,1.578-1.358,2.367l-5.454,9.432c-0.876,1.586-1.902,3.09-2.859,4.629l-2.912,4.59l-1.162,1.826h21.089
				C376.846,562.129,377.307,561.164,377.718,560.174z"/>
			<path style="fill:#141414;" d="M-28.915,455.702c0.041,0.041,0.413,0.183,0.711,0.302c0.289,0.12,0.63,0.246,0.978,0.372
				c0.681,0.253,1.366,0.508,2.101,0.755c1.426,0.508,2.92,0.983,4.409,1.465c1.492,0.478,3.028,0.918,4.543,1.382l4.626,1.292
				c6.214,1.664,12.564,3.082,18.967,4.368c12.836,2.452,25.927,4.149,39.125,5.06c13.201,0.914,26.511,1.042,39.835,0.422
				l4.998-0.269c1.668-0.089,3.339-0.163,4.998-0.334l9.996-0.882l9.974-1.232l2.499-0.309l2.484-0.393l4.972-0.803l4.981-0.803
				c1.659-0.28,3.298-0.647,4.951-0.966c3.295-0.677,6.615-1.285,9.906-2.02l9.844-2.369l2.467-0.593
				c0.82-0.205,1.627-0.453,2.442-0.677l4.882-1.38c6.556-1.73,12.958-3.948,19.429-6.043c1.628-0.499,3.206-1.125,4.8-1.713
				l4.781-1.782c3.181-1.208,6.416-2.314,9.53-3.694c25.243-10.331,49.6-23.34,72.624-38.637
				c-21.009,17.951-43.854,34.006-68.302,47.655c-3.013,1.794-6.161,3.319-9.265,4.949l-4.674,2.417
				c-1.562,0.8-3.109,1.639-4.71,2.353c-6.365,2.953-12.703,6.041-19.248,8.65l-4.881,2.041c-0.816,0.335-1.625,0.693-2.448,1.009
				l-2.478,0.925l-9.936,3.703c-3.333,1.182-6.709,2.237-10.071,3.362c-1.686,0.543-3.362,1.134-5.061,1.638l-5.111,1.475
				l-5.12,1.475l-2.565,0.729l-2.585,0.646l-10.364,2.574l-10.461,2.218c-1.743,0.394-3.502,0.689-5.259,0.999l-5.278,0.931
				c-14.096,2.382-28.377,3.982-42.763,4.728c-14.387,0.747-28.872,0.643-43.408-0.346c-7.267-0.558-14.55-1.278-21.864-2.312
				l-5.497-0.837c-1.843-0.323-3.677-0.618-5.531-0.971c-1.855-0.357-3.709-0.709-5.605-1.129c-0.932-0.193-1.904-0.42-2.877-0.651
				c-0.48-0.111-0.968-0.227-1.5-0.367c-0.526-0.136-0.979-0.244-1.757-0.475L-28.915,455.702z"/>
			<path style="fill:#141414;" d="M-75.963,240.778c0.022,0.061,0.292,0.37,0.507,0.625c0.207,0.251,0.456,0.531,0.713,0.816
				c0.5,0.563,1.001,1.127,1.552,1.709c1.056,1.155,2.188,2.313,3.315,3.474c1.129,1.16,2.319,2.304,3.477,3.46l3.597,3.416
				c4.867,4.523,9.979,8.881,15.206,13.14c10.54,8.422,21.689,16.259,33.323,23.408c11.635,7.153,23.758,13.619,36.261,19.382
				l4.707,2.129c1.569,0.715,3.137,1.434,4.74,2.064l9.581,3.934l9.732,3.589l2.438,0.9l2.467,0.807l4.942,1.613l4.95,1.617
				c1.658,0.512,3.334,0.958,5.002,1.441c3.345,0.928,6.677,1.949,10.049,2.807l10.158,2.457l2.545,0.616l2.564,0.515l5.136,1.024
				c6.838,1.495,13.768,2.431,20.7,3.547c1.731,0.307,3.477,0.446,5.219,0.661l5.233,0.598c3.492,0.385,6.986,0.861,10.497,1.045
				c28.063,2.27,56.562,1.595,84.883-1.836c-27.719,6.708-56.249,10.786-85.125,11.833c-3.611,0.23-7.221,0.167-10.838,0.192
				l-5.43,0.017c-1.81-0.011-3.627,0.054-5.434-0.05c-7.234-0.304-14.51-0.438-21.746-1.147l-5.442-0.437l-2.724-0.224l-2.71-0.327
				l-10.863-1.315c-3.619-0.482-7.21-1.132-10.826-1.694c-1.804-0.3-3.617-0.565-5.416-0.897l-5.382-1.081l-5.39-1.086l-2.698-0.547
				l-2.674-0.642l-10.714-2.582l-10.629-2.969c-1.783-0.473-3.534-1.037-5.289-1.599l-5.271-1.675
				c-14.029-4.569-27.844-9.967-41.331-16.219c-13.489-6.252-26.645-13.349-39.405-21.298c-6.348-4.031-12.627-8.224-18.778-12.721
				l-4.593-3.435c-1.518-1.191-3.042-2.35-4.556-3.575c-1.513-1.227-3.026-2.451-4.543-3.756c-0.753-0.629-1.524-1.309-2.296-1.992
				c-0.381-0.335-0.768-0.677-1.183-1.064c-0.41-0.379-0.77-0.698-1.36-1.283L-75.963,240.778z"/>
			<path style="fill:#141414;" d="M-46.559,93.548c-0.012,0.037,0.122,0.379,0.222,0.647c0.094,0.264,0.218,0.572,0.345,0.883
				c0.243,0.611,0.491,1.228,0.773,1.874c0.527,1.269,1.12,2.57,1.703,3.87l1.838,3.916l1.947,3.923
				c2.661,5.229,5.562,10.409,8.578,15.55c6.123,10.236,12.877,20.219,20.192,29.838c7.315,9.622,15.192,18.883,23.554,27.749
				c2.121,2.183,4.18,4.445,6.361,6.577l6.543,6.422c4.492,4.142,8.959,8.354,13.669,12.287l3.496,3.004
				c1.159,1.012,2.386,1.933,3.578,2.905c2.405,1.914,4.794,3.861,7.222,5.759c4.953,3.651,9.844,7.444,14.991,10.865l3.824,2.633
				l1.914,1.318l1.959,1.245l7.854,4.986c1.301,0.852,2.636,1.641,3.983,2.412l4.027,2.346l4.033,2.35l2.022,1.172l2.06,1.096
				c21.878,11.92,45.063,21.82,69.107,29.556c-24.845-4.502-49.429-11.309-73.32-20.487l-2.25-0.839l-2.216-0.918l-4.432-1.849
				l-4.438-1.853c-1.486-0.608-2.963-1.236-4.408-1.929l-8.746-4.048l-2.19-1.016l-2.149-1.093l-4.303-2.189
				c-5.794-2.836-11.368-6.073-17.035-9.199c-2.786-1.635-5.541-3.328-8.318-4.995c-1.378-0.849-2.794-1.648-4.143-2.541
				l-4.073-2.653c-5.487-3.473-10.762-7.259-16.089-11.011l-7.817-5.865c-2.612-1.956-5.109-4.051-7.674-6.077
				c-10.139-8.238-19.893-17.026-29.174-26.365c-9.283-9.339-18.091-19.221-26.38-29.655c-4.106-5.252-8.12-10.609-11.957-16.176
				l-2.847-4.22l-2.784-4.325c-0.914-1.472-1.831-2.936-2.731-4.474c-0.451-0.748-0.905-1.541-1.358-2.343l-0.692-1.24
				c-0.239-0.442-0.448-0.81-0.784-1.49L-46.559,93.548z"/>
			<path style="fill:#141414;" d="M38.05-45.905c-0.023,0.037-0.019,0.414-0.02,0.71c-0.005,0.29,0.003,0.631,0.012,0.977
				c0.013,0.679,0.028,1.362,0.065,2.087c0.048,1.415,0.148,2.883,0.239,4.346l0.354,4.438l0.458,4.483
				c0.675,5.999,1.602,12.035,2.657,18.075c2.217,12.067,5.148,24.112,8.766,36.001c3.617,11.892,7.921,23.631,12.85,35.152
				c1.275,2.859,2.458,5.773,3.812,8.602l4.048,8.514c2.879,5.585,5.707,11.228,8.876,16.685l2.321,4.133
				c0.768,1.383,1.629,2.705,2.44,4.063c1.654,2.693,3.274,5.417,4.962,8.099c3.507,5.267,6.912,10.643,10.697,15.749l2.778,3.882
				l1.393,1.942l1.463,1.886l5.861,7.561c0.96,1.279,1.987,2.499,3.019,3.717l3.082,3.67l3.087,3.677
				c0.518,0.61,1.022,1.235,1.553,1.833l1.615,1.775c17.047,19.126,36.1,36.713,56.746,52.47
				c-22.486-12.979-43.902-28.127-63.783-45.365l-1.881-1.6c-0.62-0.54-1.214-1.108-1.823-1.661l-3.633-3.343l-3.638-3.349
				c-1.219-1.113-2.434-2.23-3.585-3.41l-7.024-6.989l-1.759-1.752l-1.692-1.811l-3.383-3.632
				c-4.597-4.782-8.838-9.875-13.201-14.899c-2.116-2.561-4.169-5.175-6.261-7.768c-1.03-1.308-2.11-2.582-3.1-3.921l-2.988-4.007
				c-4.062-5.3-7.801-10.83-11.603-16.346l-5.443-8.446c-1.821-2.818-3.476-5.732-5.225-8.603
				c-6.824-11.57-13.064-23.542-18.632-35.881c-5.57-12.34-10.469-25.038-14.652-38.082c-2.04-6.542-3.95-13.152-5.609-19.9
				l-1.197-5.093c-0.365-1.722-0.75-3.428-1.096-5.17c-0.341-1.746-0.687-3.487-0.989-5.293c-0.16-0.883-0.306-1.81-0.448-2.744
				l-0.211-1.442c-0.067-0.51-0.134-0.941-0.207-1.712L38.05-45.905z"/>
			<path style="fill:#141414;" d="M313.282-112.57c-0.228,0.602-0.463,1.202-0.688,1.806l-1.909,5.233
				c-0.64,1.741-1.28,3.481-1.831,5.255l-3.436,10.571l-3.046,10.674l-0.758,2.664l-0.661,2.692l-1.317,5.379l-1.312,5.371
				c-0.405,1.798-0.749,3.611-1.125,5.414c-0.714,3.615-1.521,7.202-2.151,10.824l-1.77,10.877l-0.44,2.714l-0.334,2.732
				l-0.662,5.459c-1.01,7.253-1.435,14.571-2.038,21.837c-0.179,1.814-0.181,3.646-0.268,5.467l-0.203,5.465
				c-0.123,3.641-0.328,7.271-0.241,10.914c-0.106,29.101,2.867,57.974,8.524,86.136c-2.361-28.635-1.933-57.346,1.455-85.5
				c0.324-3.527,0.936-7.025,1.465-10.524l0.809-5.243c0.288-1.744,0.491-3.497,0.87-5.226c1.402-6.932,2.614-13.871,4.394-20.692
				l1.236-5.128l0.619-2.56l0.723-2.536l2.883-10.124c0.996-3.36,2.162-6.671,3.231-10c0.553-1.66,1.072-3.327,1.652-4.976
				l1.829-4.915l1.825-4.907l0.912-2.45l1.005-2.417l4.01-9.647l4.354-9.479c0.701-1.587,1.488-3.136,2.273-4.685l2.338-4.648
				c2.041-3.988,4.163-7.927,6.349-11.825H313.282z"/>
			<path style="fill:#141414;" d="M483.153-99.32l-4.089,3.855c-1.366,1.279-2.728,2.561-4.027,3.911l-7.879,7.98l-7.57,8.252
				l-1.887,2.06l-1.812,2.131l-3.617,4.258l-3.609,4.252c-1.174,1.442-2.305,2.921-3.457,4.378c-2.275,2.94-4.625,5.809-6.824,8.797
				l-6.504,9.016l-1.621,2.251l-1.532,2.316l-3.059,4.628c-4.183,6.089-7.858,12.507-11.679,18.793
				c-0.98,1.556-1.8,3.212-2.701,4.816l-2.644,4.842c-1.753,3.23-3.567,6.418-5.129,9.746
				c-13.192,26.228-23.486,53.642-31.026,81.623c10.705-26.938,23.971-52.693,39.677-76.607c1.877-3.041,3.997-5.928,6.049-8.85
				l3.087-4.372c1.046-1.444,2.011-2.94,3.132-4.331c4.386-5.628,8.595-11.354,13.273-16.712l3.424-4.074l1.709-2.035l1.794-1.965
				l7.161-7.843c2.408-2.589,4.956-5.049,7.419-7.574c1.246-1.25,2.469-2.519,3.731-3.75l3.867-3.612l3.859-3.607l1.927-1.801
				l1.997-1.728l7.969-6.898l8.207-6.588c1.348-1.116,2.756-2.16,4.165-3.202l4.208-3.138c11.273-8.283,22.992-15.872,35.087-22.678
				c6.165-3.47,12.429-6.735,18.77-9.792h-54.797C493.063-108.279,488.041-103.863,483.153-99.32z"/>
			<path style="fill:#141414;" d="M826.709,220.611c0.004-0.03-0.248-0.272-0.437-0.46c-0.183-0.188-0.413-0.402-0.642-0.618
				c-0.448-0.426-0.905-0.856-1.401-1.298c-0.952-0.878-1.976-1.759-2.989-2.642l-3.124-2.633l-3.219-2.598
				c-4.347-3.439-8.879-6.749-13.492-9.984c-9.283-6.401-18.998-12.359-29.041-17.813c-10.045-5.456-20.421-10.411-31.054-14.866
				c-2.671-1.076-5.32-2.237-8.022-3.25l-8.116-3.056c-5.467-1.876-10.938-3.822-16.51-5.447c-5.536-1.783-11.176-3.18-16.806-4.716
				c-5.673-1.301-11.343-2.757-17.095-3.802l-4.307-0.853c-1.436-0.295-2.875-0.571-4.323-0.785l-8.687-1.401l-2.177-0.35
				l-2.184-0.271l-4.374-0.543l-4.382-0.544l-2.194-0.273l-2.199-0.193c-23.455-2.273-47.291-2.405-71.101-0.4
				c23.29-5.297,47.197-8.555,71.388-9.596l2.269-0.117l2.268-0.037l4.543-0.074l4.55-0.073l2.278-0.036l2.274,0.044l9.116,0.185
				c1.524,0.012,3.042,0.087,4.56,0.182l4.56,0.254c6.098,0.249,12.158,0.92,18.259,1.451c6.059,0.765,12.167,1.406,18.21,2.45
				c6.079,0.886,12.097,2.11,18.148,3.285l9.021,2.019c3.013,0.673,5.983,1.5,8.984,2.246c11.953,3.141,23.798,6.873,35.467,11.234
				c11.67,4.362,23.16,9.348,34.441,14.99c5.623,2.863,11.212,5.85,16.74,9.08l4.139,2.473l4.13,2.587
				c1.378,0.894,2.754,1.778,4.149,2.735c0.689,0.459,1.399,0.955,2.114,1.461l1.097,0.785c0.386,0.285,0.711,0.513,1.282,0.966
				L826.709,220.611z"/>
			<path style="fill:#141414;" d="M634.235,625.467c0.036-0.054,0.123-0.454,0.199-0.778c0.078-0.315,0.154-0.681,0.23-1.057
				c0.153-0.736,0.308-1.473,0.447-2.261c0.298-1.533,0.553-3.13,0.813-4.724c0.258-1.595,0.467-3.23,0.706-4.846l0.599-4.917
				c0.731-6.593,1.185-13.285,1.49-20.009c0.484-13.461,0.138-27.062-1.047-40.644c-1.183-13.584-3.205-27.152-6.016-40.606
				l-1.09-5.041c-0.359-1.683-0.715-3.369-1.162-5.029l-2.54-10.023l-2.906-9.939l-0.728-2.491l-0.818-2.459l-1.643-4.922
				l-1.645-4.932c-0.574-1.635-1.213-3.244-1.816-4.87c-1.244-3.235-2.406-6.515-3.721-9.73l-4.066-9.61l-1.018-2.408l-1.11-2.363
				l-2.23-4.729c-2.864-6.374-6.231-12.491-9.455-18.715c-0.782-1.571-1.708-3.056-2.57-4.58l-2.63-4.553
				c-1.766-3.03-3.459-6.117-5.398-9.044c-14.852-23.865-32.323-46.333-51.9-67.021c21.852,18.255,42.076,38.721,60.078,61.264
				c2.331,2.76,4.424,5.694,6.595,8.581l3.241,4.346c1.068,1.458,2.199,2.878,3.189,4.389c4.056,5.983,8.272,11.901,12.006,18.126
				l2.885,4.625l1.439,2.318l1.349,2.368l5.403,9.495c1.764,3.189,3.378,6.457,5.077,9.691c0.831,1.625,1.698,3.237,2.5,4.878
				l2.333,4.959l2.334,4.969l1.165,2.489l1.075,2.526l4.299,10.128l3.939,10.29c0.681,1.711,1.269,3.452,1.862,5.192l1.791,5.223
				c4.679,13.968,8.567,28.257,11.576,42.79c3.011,14.535,5.147,29.306,6.365,44.266c0.545,7.488,0.92,15.017,0.975,22.624
				l-0.021,5.727c-0.052,1.925-0.074,3.838-0.155,5.78c-0.083,1.943-0.164,3.884-0.307,5.877c-0.056,0.979-0.143,2.002-0.231,3.026
				c-0.041,0.505-0.086,1.019-0.148,1.582c-0.06,0.554-0.102,1.033-0.219,1.854L634.235,625.467z"/>
			<path style="fill:#141414;" d="M586.377,607.05c0.042-0.103,0.129-0.413,0.203-0.662l0.228-0.817
				c0.154-0.555,0.305-1.125,0.45-1.714c0.302-1.154,0.569-2.357,0.85-3.545c0.536-2.401,1.024-4.838,1.482-7.292
				c0.908-4.913,1.612-9.907,2.222-14.922c1.164-10.044,1.791-20.216,1.887-30.423c0.097-10.208-0.336-20.454-1.254-30.68
				c-0.926-10.225-2.278-20.448-4.229-30.581c-1.927-10.135-4.215-20.241-7.125-30.192c-1.332-5.017-3.027-9.919-4.574-14.884
				c-0.823-2.464-1.731-4.899-2.593-7.353c-0.874-2.45-1.722-4.914-2.714-7.32c-7.522-19.423-16.722-38.294-27.423-56.367
				c12.301,17.019,23.274,35.094,32.688,54.056c1.228,2.348,2.315,4.76,3.428,7.163c1.102,2.408,2.251,4.8,3.317,7.228
				c2.033,4.893,4.219,9.744,6.048,14.733c3.902,9.894,7.2,20.036,10.143,30.301c2.966,10.263,5.339,20.714,7.277,31.267
				c1.93,10.556,3.367,21.23,4.249,31.986c0.883,10.756,1.212,21.589,0.951,32.475c-0.16,5.444-0.426,10.9-0.927,16.382
				c-0.255,2.742-0.547,5.492-0.904,8.259c-0.195,1.391-0.373,2.772-0.605,4.186c-0.105,0.698-0.224,1.411-0.355,2.136l-0.2,1.102
				c-0.076,0.389-0.134,0.718-0.254,1.25L586.377,607.05z"/>
			<path style="fill:#141414;" d="M481.931,535.423c1.345-12.527,2.243-25.083,2.203-37.634l0.049-4.701l-0.116-4.7l-0.256-9.387
				l-0.61-9.364l-0.308-4.675c-0.13-1.556-0.316-3.109-0.472-4.662c-2.444-24.86-7.243-49.362-14.091-73.184
				c4.988,24.283,7.843,48.924,8.35,73.516c0.035,1.537,0.1,3.071,0.109,4.608l-0.054,4.61l-0.112,9.206l-0.461,9.189l-0.241,4.587
				l-0.404,4.577c-0.905,12.21-2.726,24.316-4.957,36.288c-1.84,9.932-4.261,19.732-7.063,29.393h14.159
				C479.476,553.918,480.944,544.692,481.931,535.423z"/>
			<path style="fill:#141414;" d="M62.985,520.35c0.154,0.028,0.532,0.065,0.849,0.099l1.019,0.096
				c0.693,0.063,1.397,0.121,2.124,0.164c1.429,0.109,2.902,0.163,4.364,0.235l4.434,0.12l4.468,0.021
				c5.975-0.034,11.991-0.343,18.009-0.79c12.036-0.976,24.082-2.702,36.012-5.158c11.932-2.454,23.75-5.636,35.381-9.474
				c11.62-3.861,23.115-8.261,34.269-13.471c11.151-5.197,22.175-10.806,32.738-17.241l3.999-2.357l3.909-2.501l7.822-5.022
				l7.628-5.324l3.819-2.666c1.253-0.915,2.477-1.869,3.719-2.802c19.898-14.885,38.447-31.74,55.438-50.138
				c-15.532,19.641-32.835,37.996-51.827,54.613c-1.185,1.042-2.353,2.104-3.552,3.129l-3.662,2.999l-7.337,6.004l-7.566,5.722
				l-3.794,2.857l-3.894,2.718c-2.605,1.801-5.182,3.654-7.818,5.415l-8.006,5.151c-2.645,1.765-5.422,3.306-8.145,4.947
				c-2.738,1.616-5.455,3.276-8.272,4.756c-11.095,6.254-22.643,11.73-34.435,16.678c-11.804,4.926-23.914,9.208-36.276,12.755
				c-12.362,3.549-24.971,6.363-37.777,8.396c-6.411,0.976-12.862,1.806-19.388,2.345l-4.91,0.355l-4.95,0.246
				c-1.666,0.048-3.321,0.112-5.019,0.116c-0.837,0.014-1.696,0.011-2.565,0l-1.324-0.022c-0.464-0.014-0.866-0.02-1.492-0.057
				L62.985,520.35z"/>
			<path style="fill:#141414;" d="M-28.46,332.138c0.083,0.072,0.345,0.253,0.555,0.403l0.693,0.477
				c0.471,0.324,0.957,0.648,1.463,0.973c0.985,0.655,2.027,1.292,3.051,1.938c2.079,1.276,4.207,2.519,6.361,3.739
				c4.315,2.435,8.771,4.705,13.277,6.896c9.043,4.333,18.377,8.206,27.915,11.596c9.539,3.392,19.283,6.302,29.166,8.755
				c9.883,2.445,19.903,4.493,30.032,5.955c10.122,1.485,20.335,2.624,30.604,3.136c5.133,0.383,10.277,0.393,15.432,0.558
				c2.576,0.032,5.152-0.025,7.732-0.034c2.58-0.021,5.164-0.012,7.741-0.157c20.644-0.717,41.318-3.173,61.737-7.289
				c-19.95,5.973-40.454,10.366-61.282,13.021c-2.599,0.388-5.212,0.62-7.826,0.884c-2.614,0.25-5.229,0.55-7.85,0.758
				c-5.246,0.317-10.501,0.788-15.77,0.883c-10.538,0.444-21.113,0.248-31.688-0.32c-10.581-0.545-21.145-1.702-31.666-3.297
				c-10.521-1.603-20.994-3.703-31.366-6.346c-10.372-2.642-20.639-5.824-30.767-9.575c-5.056-1.903-10.088-3.908-15.071-6.142
				c-2.491-1.121-4.977-2.28-7.459-3.504c-1.243-0.63-2.482-1.241-3.734-1.913c-0.621-0.323-1.252-0.664-1.891-1.019l-0.97-0.542
				c-0.341-0.197-0.631-0.357-1.092-0.641L-28.46,332.138z"/>
			<path style="fill:#141414;" d="M-29.434,188.837c0.069,0.122,0.274,0.418,0.441,0.665l0.55,0.79
				c0.375,0.536,0.762,1.078,1.173,1.627c0.79,1.094,1.647,2.189,2.483,3.286l2.607,3.269l2.697,3.237
				c3.649,4.295,7.518,8.457,11.482,12.544c7.986,8.126,16.501,15.827,25.457,23.033c8.955,7.209,18.352,13.923,28.098,20.139
				c9.754,6.201,19.82,11.993,30.253,17.105c10.42,5.126,21.069,9.903,32.031,13.914l4.095,1.557
				c1.37,0.505,2.761,0.947,4.142,1.423l8.309,2.815l8.409,2.519l4.213,1.255c1.406,0.413,2.833,0.743,4.25,1.119
				c22.671,6.001,45.991,9.933,69.553,11.853c-23.636-0.006-47.357-2.031-70.806-6.241c-1.465-0.264-2.941-0.483-4.4-0.784
				l-4.372-0.924l-8.753-1.866l-8.688-2.176c-1.447-0.372-2.905-0.708-4.344-1.11l-4.306-1.247
				c-11.536-3.191-22.853-7.195-34.029-11.609c-11.189-4.4-22.1-9.544-32.78-15.175c-10.674-5.646-21.078-11.87-31.123-18.692
				c-10.046-6.821-19.729-14.235-28.991-22.244c-4.608-4.034-9.14-8.179-13.515-12.552l-3.258-3.32l-3.207-3.412
				c-1.055-1.17-2.115-2.321-3.16-3.541c-0.523-0.594-1.049-1.213-1.574-1.846l-0.798-0.967c-0.276-0.343-0.518-0.635-0.879-1.112
				L-29.434,188.837z"/>
			<path style="fill:#141414;" d="M-5.448,26.556c0.031,0.177,0.127,0.565,0.205,0.895l0.265,1.052
				c0.181,0.713,0.372,1.435,0.584,2.173c0.394,1.46,0.856,2.943,1.297,4.422l1.431,4.447l1.538,4.445
				c2.114,5.923,4.509,11.79,7.036,17.612c5.132,11.618,10.988,22.991,17.504,34.012c6.515,11.024,13.69,21.697,21.431,31.977
				c7.756,10.266,15.998,20.225,24.897,29.603c8.882,9.386,18.134,18.496,28.021,26.914l3.669,3.207
				c1.238,1.051,2.516,2.052,3.773,3.082l7.579,6.144l7.802,5.868l3.91,2.934c1.312,0.967,2.67,1.865,4.004,2.801
				c21.338,14.99,44.154,28.043,67.992,39.074c-24.575-9.263-48.435-20.67-71.132-34.257c-1.419-0.849-2.863-1.66-4.262-2.541
				l-4.176-2.68l-8.354-5.378l-8.16-5.681c-1.356-0.954-2.734-1.882-4.073-2.86l-3.977-2.992
				c-10.715-7.854-20.869-16.479-30.713-25.469c-9.861-8.983-19.129-18.638-27.958-28.705
				c-8.815-10.082-17.112-20.661-24.787-31.718C2.222,93.882-4.833,82.352-11.203,70.378c-3.149-6.008-6.173-12.102-8.939-18.363
				l-2.033-4.727l-1.942-4.8c-0.62-1.626-1.252-3.237-1.839-4.908c-0.302-0.821-0.594-1.666-0.881-2.525l-0.433-1.308
				c-0.145-0.459-0.279-0.858-0.455-1.475L-5.448,26.556z"/>
			<path style="fill:#141414;" d="M113.55-61.407c-0.027,0.122-0.066,0.46-0.101,0.736l-0.102,0.897
				c-0.068,0.61-0.131,1.233-0.182,1.875c-0.122,1.262-0.198,2.567-0.291,3.861c-0.156,2.606-0.25,5.243-0.311,7.891
				c-0.108,5.301,0.015,10.649,0.247,16.003c0.529,10.712,1.668,21.46,3.396,32.144c1.727,10.686,4.043,21.31,6.889,31.818
				c2.856,10.503,6.175,20.922,10.138,31.12c3.941,10.202,8.261,20.305,13.239,30.105l1.829,3.698
				c0.606,1.235,1.292,2.427,1.934,3.643l3.918,7.272c1.354,2.398,2.773,4.759,4.159,7.145c1.389,2.383,2.77,4.775,4.283,7.082
				c11.704,18.727,25.116,36.498,39.962,53.09c-16.216-15.251-31.222-31.907-44.708-49.843c-1.735-2.208-3.342-4.506-4.96-6.801
				c-1.614-2.297-3.264-4.574-4.851-6.894l-4.626-7.055c-0.762-1.183-1.566-2.342-2.293-3.546l-2.192-3.61
				c-5.95-9.576-11.277-19.548-16.248-29.716c-4.993-10.164-9.364-20.65-13.282-31.327c-3.907-10.682-7.293-21.587-10.083-32.679
				c-2.791-11.093-4.987-22.368-6.546-33.8c-0.747-5.723-1.378-11.476-1.763-17.293c-0.185-2.911-0.333-5.835-0.412-8.789
				c-0.024-1.486-0.064-2.961-0.051-4.476c-0.004-0.747,0.006-1.513,0.024-2.29l0.031-1.183c0.017-0.417,0.024-0.773,0.063-1.343
				L113.55-61.407z"/>
			<path style="fill:#141414;" d="M217.094,71.35l-1.07-4.274l-2.124-8.539l-1.816-8.603c-0.294-1.434-0.624-2.86-0.889-4.299
				l-0.749-4.327c-2.14-11.502-3.457-23.126-4.357-34.73c-0.918-11.609-1.06-23.249-0.69-34.827
				c0.387-11.58,1.384-23.112,3.034-34.516c1.648-11.403,3.949-22.678,6.887-33.713c1.484-5.432,3.082-10.821,4.897-16.092h-22.121
				c-0.883,3.89-1.681,7.787-2.413,11.688c-2.189,12.076-3.648,24.212-4.41,36.358c-0.762,12.146-0.824,24.297-0.249,36.386
				c0.592,12.087,1.723,24.125,3.639,36.021c1.898,11.893,4.221,23.699,7.359,35.277l1.123,4.351
				c0.389,1.446,0.843,2.876,1.262,4.313l2.559,8.604l2.861,8.501l1.436,4.242c0.485,1.411,1.05,2.796,1.571,4.195
				c8.345,22.372,18.717,43.862,30.789,64.246c-10.387-21.296-18.914-43.412-25.322-66.028
				C217.901,74.173,217.457,72.773,217.094,71.35z"/>
			<path style="fill:#141414;" d="M243.049-31.361c1.202-10.176,2.995-20.257,5.188-30.212c2.201-9.955,4.865-19.782,8.016-29.417
				c2.392-7.317,5.07-14.523,8.017-21.58h-20.249c-1.626,5.636-3.1,11.301-4.398,16.997c-2.381,10.448-4.216,20.985-5.552,31.557
				c-1.327,10.571-2.215,21.175-2.489,31.78c-0.297,10.599-0.222,21.189,0.494,31.725c0.231,5.271,0.838,10.519,1.291,15.762
				c0.277,2.618,0.644,5.228,0.962,7.838c0.331,2.609,0.631,5.219,1.087,7.81c3.195,20.778,8.124,41.187,14.621,61.001
				c-4.652-20.33-7.65-40.959-8.903-61.603c-0.213-2.575-0.27-5.162-0.358-7.744c-0.075-2.582-0.2-5.159-0.234-7.738
				c0.032-5.164-0.091-10.313,0.159-15.461C240.947-10.939,241.823-21.191,243.049-31.361z"/>
			<path style="fill:#141414;" d="M454.591-112.57c-0.913,0.87-1.84,1.726-2.742,2.606c-8.154,7.965-15.85,16.348-23.093,25.067
				c-7.234,8.725-14.077,17.745-20.332,27.138c-6.271,9.376-12.195,18.96-17.467,28.881l-2.013,3.696
				c-0.675,1.229-1.27,2.503-1.908,3.751l-3.763,7.518c-1.206,2.529-2.342,5.091-3.513,7.631c-1.168,2.543-2.345,5.077-3.379,7.678
				c-8.708,20.599-15.558,41.865-20.594,63.471c6.883-21.094,15.497-41.541,25.784-60.996c1.232-2.458,2.603-4.845,3.962-7.235
				c1.363-2.387,2.687-4.792,4.078-7.158l4.307-7.016c0.727-1.162,1.411-2.349,2.173-3.489l2.272-3.427
				c5.955-9.194,12.499-17.974,19.317-26.478c6.803-8.52,14.118-16.597,21.736-24.319c7.627-7.715,15.619-15.033,23.958-21.877
				c6.661-5.467,13.552-10.616,20.62-15.443H454.591z"/>
		</g>
	</g>
	<g>
		<defs>
			<rect id="SVGID_00000032619128494383417150000001254301322953410987_" width="750" height="500"/>
		</defs>
		<clipPath id="SVGID_00000011717570667058945520000011021469294058422715_">
			<use xlink:href="#SVGID_00000032619128494383417150000001254301322953410987_"  style="overflow:visible;"/>
		</clipPath>
		<g style="clip-path:url(#SVGID_00000011717570667058945520000011021469294058422715_);">
			<g>
				
					<ellipse style="fill:none;stroke:#FFFFFF;stroke-width:0.25;stroke-linecap:round;stroke-linejoin:round;stroke-dasharray:0,0,0,0,0,7.983;" cx="375" cy="250" rx="338.711" ry="189.338"/>
			</g>
			<g>
				
					<ellipse style="fill:none;stroke:#FFFFFF;stroke-width:0.4659;stroke-linecap:round;stroke-linejoin:round;stroke-dasharray:0,0,0,0,0,8.1371;" cx="375" cy="250" rx="355.023" ry="198.456"/>
			</g>
			<g>
				
					<ellipse style="fill:none;stroke:#FFFFFF;stroke-width:0.6818;stroke-linecap:round;stroke-linejoin:round;stroke-dasharray:0,0,0,0,0,8.283;" cx="375" cy="250" rx="371.335" ry="207.575"/>
			</g>
			<g>
				
					<ellipse style="fill:none;stroke:#FFFFFF;stroke-width:0.8977;stroke-linecap:round;stroke-linejoin:round;stroke-dasharray:0,0,0,0,0,8.4214;" cx="375" cy="250" rx="387.647" ry="216.693"/>
			</g>
			<g>
				
					<ellipse style="fill:none;stroke:#FFFFFF;stroke-width:1.1136;stroke-linecap:round;stroke-linejoin:round;stroke-dasharray:0,0,0,0,0,8.5526;" cx="375" cy="250" rx="403.96" ry="225.811"/>
			</g>
			<g>
				
					<ellipse style="fill:none;stroke:#FFFFFF;stroke-width:1.3296;stroke-linecap:round;stroke-linejoin:round;stroke-dasharray:0,0,0,0,0,8.6774;" cx="375" cy="250" rx="420.272" ry="234.93"/>
			</g>
			<g>
				
					<ellipse style="fill:none;stroke:#FFFFFF;stroke-width:1.5454;stroke-linecap:round;stroke-linejoin:round;stroke-dasharray:0,0,0,0,0,8.8317;" cx="375" cy="250" rx="436.584" ry="244.048"/>
			</g>
			<g>
				
					<ellipse style="fill:none;stroke:#FFFFFF;stroke-width:1.7614;stroke-linecap:round;stroke-linejoin:round;stroke-dasharray:0,0,0,0,0,8.9444;" cx="375" cy="250" rx="452.896" ry="253.167"/>
			</g>
			<g>
				
					<ellipse style="fill:none;stroke:#FFFFFF;stroke-width:1.9773;stroke-linecap:round;stroke-linejoin:round;stroke-dasharray:0,0,0,0,0,9.087;" cx="375" cy="250" rx="469.208" ry="262.285"/>
			</g>
			<g>
				
					<ellipse style="fill:none;stroke:#FFFFFF;stroke-width:2.1932;stroke-linecap:round;stroke-linejoin:round;stroke-dasharray:0,0,0,0,0,9.2242;" cx="375" cy="250" rx="485.521" ry="271.404"/>
			</g>
			<g>
				
					<ellipse style="fill:none;stroke:#FFFFFF;stroke-width:2.4091;stroke-linecap:round;stroke-linejoin:round;stroke-dasharray:0,0,0,0,0,9.3562;" cx="375" cy="250" rx="501.833" ry="280.522"/>
			</g>
			<g>
				
					<ellipse style="fill:none;stroke:#FFFFFF;stroke-width:2.625;stroke-linecap:round;stroke-linejoin:round;stroke-dasharray:0,0,0,0,0,9.4834;" cx="375" cy="250" rx="518.145" ry="289.64"/>
			</g>
			<g>
				
					<ellipse style="fill:none;stroke:#FFFFFF;stroke-width:2.8409;stroke-linecap:round;stroke-linejoin:round;stroke-dasharray:0,0,0,0,0,9.6407;" cx="375" cy="250" rx="534.457" ry="298.759"/>
			</g>
			<g>
				
					<ellipse style="fill:none;stroke:#FFFFFF;stroke-width:3.0568;stroke-linecap:round;stroke-linejoin:round;stroke-dasharray:0,0,0,0,0,9.7589;" cx="375" cy="250" rx="550.769" ry="307.877"/>
			</g>
			<g>
				
					<ellipse style="fill:none;stroke:#FFFFFF;stroke-width:3.2727;stroke-linecap:round;stroke-linejoin:round;stroke-dasharray:0,0,0,0,0,9.9073;" cx="375" cy="250" rx="567.081" ry="316.996"/>
			</g>
			<g>
				
					<ellipse style="fill:none;stroke:#FFFFFF;stroke-width:3.4886;stroke-linecap:round;stroke-linejoin:round;stroke-dasharray:0,0,0,0,0,10.0518;" cx="375" cy="250" rx="583.394" ry="326.114"/>
			</g>
			<g>
				
					<ellipse style="fill:none;stroke:#FFFFFF;stroke-width:3.7046;stroke-linecap:round;stroke-linejoin:round;stroke-dasharray:0,0,0,0,0,10.1922;" cx="375" cy="250" rx="599.706" ry="335.233"/>
			</g>
			<g>
				
					<ellipse style="fill:none;stroke:#FFFFFF;stroke-width:3.9204;stroke-linecap:round;stroke-linejoin:round;stroke-dasharray:0,0,0,0,0,10.3289;" cx="375" cy="250" rx="616.018" ry="344.351"/>
			</g>
			<g>
				
					<ellipse style="fill:none;stroke:#FFFFFF;stroke-width:4.1364;stroke-linecap:round;stroke-linejoin:round;stroke-dasharray:0,0,0,0,0,10.4621;" cx="375" cy="250" rx="632.33" ry="353.469"/>
			</g>
			<g>
				
					<ellipse style="fill:none;stroke:#FFFFFF;stroke-width:4.3523;stroke-linecap:round;stroke-linejoin:round;stroke-dasharray:0,0,0,0,0,10.5917;" cx="375" cy="250" rx="648.642" ry="362.588"/>
			</g>
			<g>
				
					<ellipse style="fill:none;stroke:#FFFFFF;stroke-width:4.5682;stroke-linecap:round;stroke-linejoin:round;stroke-dasharray:0,0,0,0,0,10.7179;" cx="375" cy="250" rx="664.955" ry="371.706"/>
			</g>
			<g>
				
					<ellipse style="fill:none;stroke:#FFFFFF;stroke-width:4.7841;stroke-linecap:round;stroke-linejoin:round;stroke-dasharray:0,0,0,0,0,10.8756;" cx="375" cy="250" rx="681.267" ry="380.825"/>
			</g>
			<g>
				
					<ellipse style="fill:none;stroke:#FFFFFF;stroke-width:5;stroke-linecap:round;stroke-linejoin:round;stroke-dasharray:0,0,0,0,0,10.9955;" cx="375" cy="250" rx="697.579" ry="389.943"/>
			</g>
		</g>
	</g>
</g>
</svg>
