<?xml version="1.0" encoding="utf-8"?>
<!-- Generator: Adobe Illustrator 27.5.0, SVG Export Plug-In . SVG Version: 6.00 Build 0)  -->
<svg version="1.1" xmlns="http://www.w3.org/2000/svg" xmlns:xlink="http://www.w3.org/1999/xlink" x="0px" y="0px"
	 viewBox="0 0 750 500" style="enable-background:new 0 0 750 500;" xml:space="preserve">
<g id="BACKGROUND">
	<rect style="fill:#FFFFFF;" width="750" height="500"/>
</g>
<g id="OBJECTS">
	<g>
		<defs>
			<rect id="SVGID_1_" width="750" height="500"/>
		</defs>
		<clipPath id="SVGID_00000074406356260295347850000017853816034618806413_">
			<use xlink:href="#SVGID_1_"  style="overflow:visible;"/>
		</clipPath>
		<g style="clip-path:url(#SVGID_00000074406356260295347850000017853816034618806413_);">
			<polygon style="fill:#F0F0F0;" points="49.708,-4.174 229.377,136.283 77.658,-4.174 			"/>
			<polygon style="fill:#F0F0F0;" points="-3.549,100.451 109.661,148.401 -4.713,118.796 			"/>
			<polygon style="fill:#F0F0F0;" points="-4.713,223.988 193.829,238.242 -4.713,238.242 			"/>
			<polygon style="fill:#F0F0F0;" points="-3.549,309.174 114.326,290.508 -3.549,321.392 			"/>
			<polygon style="fill:#F0F0F0;" points="-5.967,396.736 176.264,331.127 -4.713,404.145 			"/>
			<polygon style="fill:#F0F0F0;" points="-3.549,496.855 159.891,387.385 6.827,503.643 -3.549,503.643 			"/>
			<polygon style="fill:#F0F0F0;" points="69.614,501.606 146.654,441.349 85.148,501.606 			"/>
			<polygon style="fill:#F0F0F0;" points="280.656,503.643 324.493,357.706 292.93,505.513 			"/>
			<path style="fill:#F0F0F0;" d="M403.91,503.643c0-0.679-3.055-72.033-3.055-72.033l11.539,72.033H403.91z"/>
			<polygon style="fill:#F0F0F0;" points="460.927,503.643 424.167,387.385 466.357,503.643 			"/>
			<polygon style="fill:#F0F0F0;" points="549.594,509.056 486.129,410.605 558.079,508.182 			"/>
			<polygon style="fill:#F0F0F0;" points="687.74,503.643 502.357,367.888 698.263,503.643 			"/>
			<polygon style="fill:#F0F0F0;" points="756.872,471.401 651.662,410.605 759.255,463.595 			"/>
			<polygon style="fill:#F0F0F0;" points="758.154,423.887 628.215,369.585 758.154,418.796 			"/>
			<polygon style="fill:#F0F0F0;" points="761.181,312.228 600.31,288.471 760.236,321.731 			"/>
			<path style="fill:#F0F0F0;" d="M754.703,203.285c-0.545,0-108.131,15.273-108.131,15.273l108.131-7.636V203.285z"/>
			<polygon style="fill:#F0F0F0;" points="754.703,99.093 585.821,169.346 754.703,116.402 			"/>
			<polygon style="fill:#F0F0F0;" points="704.267,-6.307 572.546,93.663 712.237,-4.822 			"/>
			<polygon style="fill:#F0F0F0;" points="754.703,9.834 690.353,52.258 754.703,16.962 			"/>
			<polygon style="fill:#F0F0F0;" points="525.41,-4.174 462.12,109.869 538.986,-2.57 			"/>
			<polygon style="fill:#F0F0F0;" points="317.027,-6.307 345.535,118.796 329.584,-6.307 			"/>
			<polygon style="fill:#F0F0F0;" points="192.472,-4.174 266.458,101.661 201.635,-4.174 			"/>
		</g>
		<g style="clip-path:url(#SVGID_00000074406356260295347850000017853816034618806413_);">
			<g>
				<line style="fill:#141414;" x1="514.078" y1="397.116" x2="466.357" y2="360.081"/>
				<path d="M514.078,397.116c-4.103-2.923-8.139-5.933-12.165-8.956c-4.027-3.021-7.999-6.113-12.002-9.167
					c-3.953-3.117-7.932-6.2-11.86-9.349l-5.88-4.74c-1.937-1.609-3.896-3.19-5.815-4.823c2.058,1.454,4.076,2.958,6.116,4.436
					l6.051,4.519c4.026,3.023,8,6.113,12.001,9.168c3.951,3.119,7.933,6.2,11.859,9.351
					C506.311,390.704,510.228,393.867,514.078,397.116z"/>
			</g>
			<g>
				<line style="fill:#141414;" x1="22.276" y1="364.581" x2="252.753" y2="293.475"/>
				<polygon points="22.276,364.581 51.014,355.461 79.783,346.439 137.367,328.551 195.02,310.884 223.871,302.129 
					252.753,293.475 224.015,302.597 195.247,311.619 137.662,329.505 80.008,347.171 51.158,355.925 				"/>
			</g>
			<g>
				<line style="fill:#141414;" x1="213.967" y1="373.534" x2="262.139" y2="337.846"/>
				<path d="M213.967,373.534c3.892-3.14,7.848-6.191,11.815-9.23c3.965-3.04,7.984-6.008,11.974-9.016
					c4.038-2.943,8.05-5.92,12.111-8.83l6.105-4.349c2.057-1.42,4.093-2.868,6.167-4.264c-1.94,1.578-3.918,3.104-5.876,4.658
					l-5.939,4.573c-3.967,3.038-7.984,6.009-11.975,9.014c-4.039,2.94-8.049,5.921-12.112,8.828
					C222.176,367.829,218.104,370.726,213.967,373.534z"/>
			</g>
			<g>
				<line style="fill:#141414;" x1="583.475" y1="22.312" x2="464.081" y2="131.848"/>
				<polygon points="583.475,22.312 568.715,36.183 553.885,49.978 524.116,77.448 494.189,104.747 479.171,118.336 
					464.081,131.848 478.84,117.975 493.669,104.18 523.44,76.712 553.368,49.414 568.386,35.825 				"/>
			</g>
			<g>
				<line style="fill:#141414;" x1="522.176" y1="316.013" x2="695.032" y2="376.945"/>
				<polygon points="522.176,316.013 543.863,323.4 565.517,330.884 608.77,346.008 651.946,361.349 673.506,369.097 
					695.032,376.945 673.344,369.559 651.69,362.074 608.438,346.95 565.263,331.607 543.702,323.858 				"/>
			</g>
			<g>
				<line style="fill:#141414;" x1="404.111" y1="9.876" x2="397.743" y2="97.433"/>
				<path d="M404.111,9.876c-0.325,7.311-0.759,14.615-1.21,21.917l-1.476,21.897l-1.707,21.881l-0.935,10.934l-1.04,10.927
					l0.552-10.962l0.657-10.955l1.478-21.897l1.708-21.881C402.748,24.447,403.375,17.158,404.111,9.876z"/>
			</g>
			<g>
				<line style="fill:#141414;" x1="422.19" y1="38.917" x2="406.005" y2="132.842"/>
				<path d="M422.19,38.917c-1.145,7.862-2.399,15.706-3.669,23.546l-3.931,23.501l-4.159,23.462l-2.16,11.717l-2.265,11.699
					l1.782-11.782l1.886-11.764l3.933-23.501l4.161-23.461C419.194,54.52,420.638,46.709,422.19,38.917z"/>
			</g>
			<g>
				<line style="fill:#141414;" x1="31.523" y1="52.394" x2="120.765" y2="101.661"/>
				<path d="M31.523,52.394c7.537,3.925,15.02,7.946,22.496,11.982L76.385,76.59L98.64,89.007l11.088,6.281l11.037,6.373
					l-11.274-5.944l-11.223-6.036L75.902,77.465L53.648,65.046C46.25,60.87,38.86,56.68,31.523,52.394z"/>
			</g>
			<g>
				<line style="fill:#141414;" x1="-18.325" y1="42.335" x2="73.606" y2="89.085"/>
				<path d="M-18.325,42.335c7.754,3.712,15.459,7.522,23.156,11.346l23.036,11.584l22.931,11.79l11.428,5.968l11.38,6.062
					L62.004,83.46l-11.555-5.719L27.414,66.155L4.484,54.364C-3.14,50.397-10.757,46.415-18.325,42.335z"/>
			</g>
			<g>
				<line style="fill:#141414;" x1="386.996" y1="487.928" x2="382.106" y2="383.603"/>
				<path d="M386.996,487.928c-0.613-8.684-1.117-17.373-1.605-26.063l-1.339-26.076l-1.108-26.087l-0.472-13.047l-0.366-13.052
					l0.856,13.029l0.751,13.034l1.337,26.076l1.106,26.087C386.484,470.526,386.795,479.224,386.996,487.928z"/>
			</g>
			<g>
				<line style="fill:#141414;" x1="686.203" y1="234.921" x2="580.413" y2="242.563"/>
				<path d="M686.203,234.921c-8.801,0.843-17.61,1.576-26.42,2.292l-26.439,2.027l-26.456,1.796l-13.234,0.816l-13.242,0.711
					l13.206-1.2l13.214-1.094l26.439-2.025l26.456-1.794C668.55,235.893,677.372,235.353,686.203,234.921z"/>
			</g>
			<g>
				<line style="fill:#141414;" x1="622.424" y1="90.757" x2="547.559" y2="132.842"/>
				<path d="M622.424,90.757c-6.138,3.687-12.329,7.278-18.529,10.855l-18.659,10.623l-18.773,10.421l-9.427,5.139
					c-3.16,1.681-6.303,3.392-9.478,5.047c3.064-1.852,6.159-3.648,9.238-5.474l9.29-5.382l18.66-10.622l18.773-10.42
					C609.798,97.507,616.085,94.084,622.424,90.757z"/>
			</g>
			<g>
				<line style="fill:#141414;" x1="87.445" y1="248.873" x2="169.278" y2="251.127"/>
				<path d="M87.445,248.873c6.825-0.018,13.647,0.073,20.469,0.181l20.462,0.447l20.455,0.678l10.225,0.421
					c3.407,0.177,6.816,0.32,10.223,0.527c-3.413,0.019-6.824-0.026-10.236-0.037l-10.233-0.142l-20.462-0.449l-20.455-0.68
					C101.075,249.551,94.258,249.267,87.445,248.873z"/>
			</g>
			<g>
				<line style="fill:#141414;" x1="13.22" y1="180.949" x2="70.918" y2="190.263"/>
				<path d="M13.22,180.949c4.841,0.573,9.665,1.253,14.485,1.951c4.821,0.695,9.628,1.479,14.443,2.214
					c4.802,0.815,9.611,1.587,14.406,2.442l7.19,1.302c2.391,0.47,4.787,0.906,7.173,1.406c-2.422-0.276-4.834-0.616-7.251-0.922
					l-7.234-1.027c-4.821-0.697-9.628-1.478-14.443-2.215c-4.801-0.818-9.611-1.586-14.406-2.444
					C22.788,182.8,17.996,181.928,13.22,180.949z"/>
			</g>
			<g>
				<line style="fill:#141414;" x1="316.144" y1="448.217" x2="306.791" y2="492.122"/>
				<path d="M316.144,448.217c-0.578,3.702-1.263,7.381-1.964,11.056c-0.69,3.678-1.457,7.339-2.224,11
					c-0.79,3.656-1.583,7.312-2.451,10.952l-1.306,5.459c-0.471,1.812-0.908,3.631-1.409,5.437c0.279-1.853,0.621-3.693,0.93-5.539
					l1.033-5.517c0.691-3.678,1.457-7.339,2.226-11c0.792-3.656,1.584-7.312,2.453-10.952
					C314.289,455.472,315.163,451.833,316.144,448.217z"/>
			</g>
			<g>
				<line style="fill:#141414;" x1="374.198" y1="420.512" x2="371.747" y2="470.516"/>
				<path d="M374.198,420.512c0.002,4.177-0.106,8.349-0.23,12.52c-0.122,4.171-0.334,8.338-0.496,12.507
					c-0.243,4.165-0.444,8.332-0.727,12.495l-0.446,6.244c-0.185,2.079-0.336,4.161-0.551,6.238
					c-0.011-2.089,0.042-4.175,0.062-6.263l0.167-6.257c0.125-4.171,0.333-8.338,0.498-12.507c0.246-4.165,0.443-8.332,0.729-12.495
					C373.487,428.831,373.787,424.669,374.198,420.512z"/>
			</g>
			<g>
				<line style="fill:#141414;" x1="571.24" y1="366.453" x2="610.043" y2="383.906"/>
				<path d="M571.24,366.453c3.318,1.266,6.591,2.633,9.858,4.014c3.271,1.371,6.51,2.814,9.749,4.257
					c3.229,1.465,6.457,2.931,9.654,4.468l4.793,2.309c1.583,0.803,3.18,1.574,4.75,2.405c-1.663-0.624-3.3-1.307-4.951-1.958
					l-4.908-2.054c-3.271-1.372-6.51-2.814-9.748-4.258c-3.228-1.466-6.457-2.932-9.653-4.47
					C577.583,369.638,574.389,368.096,571.24,366.453z"/>
			</g>
			<g>
				<line style="fill:#141414;" x1="514.226" y1="65.868" x2="550.641" y2="21.488"/>
				<path d="M514.226,65.868c2.875-3.829,5.835-7.589,8.808-11.338c2.971-3.75,6.011-7.444,9.014-11.169
					c3.065-3.674,6.096-7.374,9.193-11.022l4.66-5.459c1.581-1.796,3.136-3.615,4.741-5.392c-1.43,1.921-2.909,3.801-4.362,5.703
					l-4.444,5.636c-2.973,3.749-6.011,7.445-9.015,11.168c-3.067,3.672-6.096,7.375-9.194,11.021
					C520.529,58.664,517.42,62.301,514.226,65.868z"/>
			</g>
		</g>
		<g style="clip-path:url(#SVGID_00000074406356260295347850000017853816034618806413_);">
			<polygon style="fill:#141414;" points="-8.972,9.4 247.759,165.931 -5.723,-6.307 			"/>
			<polygon style="fill:#141414;" points="9.443,-2.57 132.392,79.812 27.317,-2.57 			"/>
			<polygon style="fill:#141414;" points="365.46,-6.307 369.084,138.85 376.892,-6.307 			"/>
			<polygon style="fill:#141414;" points="479.377,-9.015 427.133,125.85 494.543,-9.015 			"/>
			<path style="fill:#141414;" d="M760.139,142.641c-5.958,0.542-232.358,68.245-232.358,68.245l232.358-53.621V142.641z"/>
			<polygon style="fill:#141414;" points="760.139,291.047 540.238,271.548 760.139,300.254 			"/>
			<path style="fill:#141414;" d="M760.139,510.406c-1.083-2.167-243.119-155.72-243.119-155.72l224.162,155.72H760.139z"/>
			<polygon style="fill:#141414;" points="503.407,510.406 438.954,372.291 493.116,510.406 			"/>
			<polygon style="fill:#141414;" points="-8.972,463.826 232.052,331.127 -5.723,475.2 			"/>
			<polygon style="fill:#141414;" points="-8.972,279.131 176.264,269.382 -8.972,292.13 			"/>
			<polygon style="fill:#141414;" points="-8.972,202.22 204.97,222.26 -8.972,193.012 			"/>
			<polygon style="fill:#141414;" points="666.522,-6.307 503.466,128.481 683.75,-6.307 			"/>
			<polygon style="fill:#141414;" points="96.007,-6.307 215.666,94.789 106.885,-6.307 			"/>
			<polygon style="fill:#141414;" points="113.637,-6.307 188.658,62.912 119.393,-6.307 			"/>
			<polygon style="fill:#141414;" points="226.919,-6.307 301.565,132.131 236.297,-6.307 			"/>
			<polygon style="fill:#141414;" points="289.187,-6.307 321.071,118.796 285.061,-6.307 			"/>
			<polygon style="fill:#141414;" points="278.627,-2.57 298.413,66.969 271.286,-2.57 			"/>
			<polygon style="fill:#141414;" points="171.254,-4.174 243.455,85.88 176.748,-4.174 			"/>
			<polygon style="fill:#141414;" points="504.142,-6.307 462.12,82.504 510.903,-6.307 			"/>
			<polygon style="fill:#141414;" points="467.72,-6.758 444.306,58.869 462.563,-6.569 			"/>
			<polygon style="fill:#141414;" points="652.552,-6.307 564.655,69.996 643.96,-6.307 			"/>
			<polygon style="fill:#141414;" points="756.877,65.085 598.579,145.011 757.39,78.181 			"/>
			<polygon style="fill:#141414;" points="754.443,48.165 544.784,156.332 754.703,54.802 			"/>
			<polygon style="fill:#141414;" points="-6.01,66.969 161.326,148.401 -6.01,73.454 			"/>
			<polygon style="fill:#141414;" points="-4.713,79.892 88.684,123.43 -4.713,85.453 			"/>
			<polygon style="fill:#141414;" points="-3.549,153.555 155.836,194.416 -3.549,161.338 			"/>
			<polyline style="fill:#141414;" points="-4.713,132.131 -3.549,132.466 119.393,167.824 -4.713,136.692 			"/>
			<polygon style="fill:#141414;" points="-5.967,340.013 213.967,287.113 -5.967,348.709 			"/>
			<polygon style="fill:#141414;" points="-5.967,427.697 114.326,373.71 -5.967,434.581 			"/>
			<polygon style="fill:#141414;" points="27.367,507.771 198.024,386.029 33.889,510.406 			"/>
			<path style="fill:#141414;" d="M316.144,507.409l20.653-101.452c0,0-8.333,100.003-10.326,101.452
				C324.477,508.858,316.144,507.409,316.144,507.409z"/>
			<polygon style="fill:#141414;" points="756.052,-4.822 643.96,67.893 758.154,-2.021 			"/>
			<path style="fill:#141414;" d="M760.139,176.763c-0.836-0.624-187.593,37.57-187.593,37.57l187.593-30.819V176.763z"/>
			<polygon style="fill:#141414;" points="758.55,193.253 616.93,213.317 758.365,198.518 			"/>
			<path style="fill:#141414;" d="M760.139,258.06c-1.626,0.527-123.848,2.141-123.848,2.141s123.63,4.18,123.848,3.39
				c0.218-0.79,0-6.849,0-6.849"/>
			<path style="fill:#141414;" d="M761.181,357.259c-2.27-0.434-200.065-47.149-200.065-47.149l198.292,52.407L761.181,357.259z"/>
			<polyline style="fill:#141414;" points="759.164,337.306 654.947,316.013 759.359,342.044 759.229,338.885 			"/>
			<polygon style="fill:#141414;" points="759.255,437.616 616.225,376.945 759.255,444.202 			"/>
			<polygon style="fill:#141414;" points="668.164,509.088 535.932,410.573 656.047,509.088 			"/>
			<polygon style="fill:#141414;" points="587.297,509.088 490.626,399.773 581.502,509.088 			"/>
			<polygon style="fill:#141414;" points="104,506.387 280.656,345.427 111.54,508.053 			"/>
			<polygon style="fill:#141414;" points="153.883,506.03 262.139,383.174 161.005,508.053 			"/>
			<polygon style="fill:#141414;" points="173.825,508.053 284.93,361.808 188.425,508.053 			"/>
			<polygon style="fill:#141414;" points="348.316,508.053 360.78,354.686 356.151,509.088 			"/>
			<polygon style="fill:#141414;" points="432.357,508.053 406.005,379.969 438.954,508.053 			"/>
			<polygon style="fill:#141414;" points="447.313,509.088 424.167,426.74 450.518,508.053 			"/>
			<polygon style="fill:#141414;" points="255.729,508.053 294.189,405.919 260.358,508.053 			"/>
			<polygon style="fill:#141414;" points="222.255,505.157 258.578,434.931 226.885,505.513 			"/>
			<polygon style="fill:#141414;" points="527.793,506.387 486.129,431.887 531.71,506.387 			"/>
			<polygon style="fill:#141414;" points="623.941,508.053 565.54,454.431 628.215,508.053 			"/>
			<polygon style="fill:#141414;" points="760.139,496.06 594.029,388.16 760.236,491.074 			"/>
			<polygon style="fill:#141414;" points="-7.629,269.382 151.621,264.055 -7.629,264.055 			"/>
			<polygon style="fill:#141414;" points="356.781,-2.57 357.691,59.315 349.093,-2.57 			"/>
		</g>
	</g>
	<g>
		<defs>
			<rect id="SVGID_00000104688296628410481580000004196522056302099593_" width="750" height="500"/>
		</defs>
		<clipPath id="SVGID_00000077314077634133861010000010909978900345560204_">
			<use xlink:href="#SVGID_00000104688296628410481580000004196522056302099593_"  style="overflow:visible;"/>
		</clipPath>
		<g style="clip-path:url(#SVGID_00000077314077634133861010000010909978900345560204_);">
			<g>
				
					<ellipse style="fill:none;stroke:#141414;stroke-width:0.25;stroke-linecap:round;stroke-linejoin:round;stroke-dasharray:0,0,0,0,0,7.9856;" cx="375" cy="250" rx="379.794" ry="251.666"/>
			</g>
			<g>
				
					<ellipse style="fill:none;stroke:#141414;stroke-width:0.4659;stroke-linecap:round;stroke-linejoin:round;stroke-dasharray:0,0,0,0,0,8.1402;" cx="375" cy="250" rx="392.093" ry="259.211"/>
			</g>
			<g>
				
					<ellipse style="fill:none;stroke:#141414;stroke-width:0.6818;stroke-linecap:round;stroke-linejoin:round;stroke-dasharray:0,0,0,0,0,8.2591;" cx="375" cy="250" rx="404.392" ry="266.755"/>
			</g>
			<g>
				
					<ellipse style="fill:none;stroke:#141414;stroke-width:0.8977;stroke-linecap:round;stroke-linejoin:round;stroke-dasharray:0,0,0,0,0,8.4064;" cx="375" cy="250" rx="416.691" ry="274.3"/>
			</g>
			<g>
				
					<ellipse style="fill:none;stroke:#141414;stroke-width:1.1136;stroke-linecap:round;stroke-linejoin:round;stroke-dasharray:0,0,0,0,0,8.5504;" cx="375" cy="250" rx="428.99" ry="281.844"/>
			</g>
			<g>
				
					<ellipse style="fill:none;stroke:#141414;stroke-width:1.3296;stroke-linecap:round;stroke-linejoin:round;stroke-dasharray:0,0,0,0,0,8.6911;" cx="375" cy="250" rx="441.289" ry="289.389"/>
			</g>
			<g>
				
					<ellipse style="fill:none;stroke:#141414;stroke-width:1.5454;stroke-linecap:round;stroke-linejoin:round;stroke-dasharray:0,0,0,0,0,8.8287;" cx="375" cy="250" rx="453.588" ry="296.934"/>
			</g>
			<g>
				
					<ellipse style="fill:none;stroke:#141414;stroke-width:1.7614;stroke-linecap:round;stroke-linejoin:round;stroke-dasharray:0,0,0,0,0,8.9634;" cx="375" cy="250" rx="465.887" ry="304.478"/>
			</g>
			<g>
				
					<ellipse style="fill:none;stroke:#141414;stroke-width:1.9773;stroke-linecap:round;stroke-linejoin:round;stroke-dasharray:0,0,0,0,0,9.095;" cx="375" cy="250" rx="478.186" ry="312.023"/>
			</g>
			<g>
				
					<ellipse style="fill:none;stroke:#141414;stroke-width:2.1932;stroke-linecap:round;stroke-linejoin:round;stroke-dasharray:0,0,0,0,0,9.2239;" cx="375" cy="250" rx="490.484" ry="319.567"/>
			</g>
			<g>
				
					<ellipse style="fill:none;stroke:#141414;stroke-width:2.4091;stroke-linecap:round;stroke-linejoin:round;stroke-dasharray:0,0,0,0,0,9.35;" cx="375" cy="250" rx="502.783" ry="327.112"/>
			</g>
			<g>
				
					<ellipse style="fill:none;stroke:#141414;stroke-width:2.625;stroke-linecap:round;stroke-linejoin:round;stroke-dasharray:0,0,0,0,0,9.5068;" cx="375" cy="250" rx="515.082" ry="334.657"/>
			</g>
			<g>
				
					<ellipse style="fill:none;stroke:#141414;stroke-width:2.8409;stroke-linecap:round;stroke-linejoin:round;stroke-dasharray:0,0,0,0,0,9.6277;" cx="375" cy="250" rx="527.381" ry="342.201"/>
			</g>
			<g>
				
					<ellipse style="fill:none;stroke:#141414;stroke-width:3.0568;stroke-linecap:round;stroke-linejoin:round;stroke-dasharray:0,0,0,0,0,9.7799;" cx="375" cy="250" rx="539.68" ry="349.746"/>
			</g>
			<g>
				
					<ellipse style="fill:none;stroke:#141414;stroke-width:3.2727;stroke-linecap:round;stroke-linejoin:round;stroke-dasharray:0,0,0,0,0,9.896;" cx="375" cy="250" rx="551.979" ry="357.29"/>
			</g>
			<g>
				
					<ellipse style="fill:none;stroke:#141414;stroke-width:3.4886;stroke-linecap:round;stroke-linejoin:round;stroke-dasharray:0,0,0,0,0,10.0438;" cx="375" cy="250" rx="564.278" ry="364.835"/>
			</g>
			<g>
				
					<ellipse style="fill:none;stroke:#141414;stroke-width:3.7046;stroke-linecap:round;stroke-linejoin:round;stroke-dasharray:0,0,0,0,0,10.1895;" cx="375" cy="250" rx="576.577" ry="372.379"/>
			</g>
			<g>
				
					<ellipse style="fill:none;stroke:#141414;stroke-width:3.9204;stroke-linecap:round;stroke-linejoin:round;stroke-dasharray:0,0,0,0,0,10.3334;" cx="375" cy="250" rx="588.876" ry="379.924"/>
			</g>
			<g>
				
					<ellipse style="fill:none;stroke:#141414;stroke-width:4.1364;stroke-linecap:round;stroke-linejoin:round;stroke-dasharray:0,0,0,0,0,10.4404;" cx="375" cy="250" rx="601.175" ry="387.469"/>
			</g>
			<g>
				
					<ellipse style="fill:none;stroke:#141414;stroke-width:4.3523;stroke-linecap:round;stroke-linejoin:round;stroke-dasharray:0,0,0,0,0,10.5802;" cx="375" cy="250" rx="613.474" ry="395.013"/>
			</g>
			<g>
				
					<ellipse style="fill:none;stroke:#141414;stroke-width:4.5682;stroke-linecap:round;stroke-linejoin:round;stroke-dasharray:0,0,0,0,0,10.7182;" cx="375" cy="250" rx="625.773" ry="402.558"/>
			</g>
			<g>
				
					<ellipse style="fill:none;stroke:#141414;stroke-width:4.7841;stroke-linecap:round;stroke-linejoin:round;stroke-dasharray:0,0,0,0,0,10.8544;" cx="375" cy="250" rx="638.072" ry="410.102"/>
			</g>
			<g>
				
					<ellipse style="fill:none;stroke:#141414;stroke-width:5;stroke-linecap:round;stroke-linejoin:round;stroke-dasharray:0,0,0,0,0,10.9888;" cx="375" cy="250" rx="650.371" ry="417.647"/>
			</g>
		</g>
	</g>
</g>
</svg>
